<?xml version="1.0" standalone="no"?>
<!DOCTYPE svg PUBLIC "-//W3C//DTD SVG 1.1//EN" "http://www.w3.org/Graphics/SVG/1.1/DTD/svg11.dtd" >
<!--
2013-9-30: Created.
-->
<svg>
<metadata>
Created by iconfont
</metadata>
<defs>

<font id="iconfont" horiz-adv-x="1024" >
  <font-face
    font-family="iconfont"
    font-weight="500"
    font-stretch="normal"
    units-per-em="1024"
    ascent="896"
    descent="-128"
  />
    <missing-glyph />
    
    <glyph glyph-name="x" unicode="x" horiz-adv-x="1001"
d="M281 543q-27 -1 -53 -1h-83q-18 0 -36.5 -6t-32.5 -18.5t-23 -32t-9 -45.5v-76h912v41q0 16 -0.5 30t-0.5 18q0 13 -5 29t-17 29.5t-31.5 22.5t-49.5 9h-133v-97h-438v97zM955 310v-52q0 -23 0.5 -52t0.5 -58t-10.5 -47.5t-26 -30t-33 -16t-31.5 -4.5q-14 -1 -29.5 -0.5
t-29.5 0.5h-32l-45 128h-439l-44 -128h-29h-34q-20 0 -45 1q-25 0 -41 9.5t-25.5 23t-13.5 29.5t-4 30v167h911zM163 247q-12 0 -21 -8.5t-9 -21.5t9 -21.5t21 -8.5q13 0 22 8.5t9 21.5t-9 21.5t-22 8.5zM316 123q-8 -26 -14 -48q-5 -19 -10.5 -37t-7.5 -25t-3 -15t1 -14.5
t9.5 -10.5t21.5 -4h37h67h81h80h64h36q23 0 34 12t2 38q-5 13 -9.5 30.5t-9.5 34.5q-5 19 -11 39h-368zM336 498v228q0 11 2.5 23t10 21.5t20.5 15.5t34 6h188q31 0 51.5 -14.5t20.5 -52.5v-227h-327z" />
    

    
    <glyph glyph-name="guanbi" unicode="&#58886;" d="M592.768 384l348.928 348.928a58.048 58.048 0 1 1-82.112 82.048L510.656 466.112 161.728 814.976a58.112 58.112 0 0 1-82.112-82.048L428.608 384 79.68 35.136a58.112 58.112 0 0 1 82.112-82.112L510.72 301.952l348.864-348.928a58.112 58.112 0 0 1 82.112 82.112L592.768 384z"  horiz-adv-x="1024" />

    
    <glyph glyph-name="buhang" unicode="&#58887;" d="M63.275 394.742v-73.487a57.598 57.598 0 0 1 115.196 0V369.69l70.531 71.888 25.798-145.28a61.945 61.945 0 0 1 8.654-32.553l141.604-235.709q1.356-2.238 2.835-4.354c0.76-48.286 26.666-87.024 58.5-87.024 32.335 0 58.567 8.22 58.567 57.415v56.52a61.918 61.918 0 0 1-7.988 40.69l-84.095 173.059 0.95-0.15 0.257 163.836-0.271 0.203v35.103S435.516 638.508 212.38 571.843v-0.366a60.494 60.494 0 0 1-23.194-14.826l-107.776-110a62.895 62.895 0 0 1-17.348-51.95z m436.505-37.408l70.287-38.44c29.053-15.896 66.217-6.456 82.982 21.051s6.782 62.705-22.23 78.602L499.78 490.19zM339.132 615.3c76.35 0 138.282 62.853 138.282 140.343S415.482 896 339.132 896s-138.28-62.854-138.28-140.356S262.781 615.3 339.118 615.3zM248.5 183.896L111.304 45.954a64.237 64.237 0 0 1 0-90.361 63.112 63.112 0 0 1 89.71 0l136.762 137.521L248.5 183.91z m0 0"  horiz-adv-x="1024" />

    
    <glyph glyph-name="rili" unicode="&#58893;" d="M814.804 686.68h-46.946v62.38c0 19.751-16.162 35.913-35.914 35.913h-1.924c-19.753 0-35.914-16.162-35.914-35.913v-62.38H349.192v62.38c0 19.751-16.162 35.913-35.914 35.913h-1.924c-19.753 0-35.914-16.162-35.914-35.913v-62.38H225.8c-54.181 0-98.51-44.331-98.51-98.51v-492.548c0-54.182 44.329-98.511 98.51-98.511h589.005c54.181 0 98.51 44.329 98.51 98.511V588.171c-0.001 54.179-44.33 98.509-98.511 98.509z m26.681-221.646h-641.34v74.904h641.34v-74.904z"  horiz-adv-x="1024" />

    
    <glyph glyph-name="xiangxia" unicode="&#58895;" d="M163.397 606.831c-40.578 0-66.526-54.184-35.442-85.258l349.263-349.278c20.031-20.032 49.823-20.032 69.854 0l349.275 349.278c30.305 30.294 6.679 85.258-34.929 85.258h-698.02z"  horiz-adv-x="1024" />

    
    <glyph glyph-name="weizhi" unicode="&#58896;" d="M530.423 882.18c-219.912 0-398.186-178.277-398.186-398.181 0-219.912 312.042-556.46 312.042-556.46 47.574-55.533 125.432-55.814 172.54 0.295 0 0 311.782 336.254 311.782 556.166 0.001 219.904-178.267 398.18-398.178 398.18z m0-569.657c-101.744 0-184.208 82.47-184.208 184.195 0 101.743 82.464 184.206 184.208 184.206 101.724 0 184.187-82.463 184.187-184.206 0-101.725-82.463-184.195-184.187-184.195z"  horiz-adv-x="1024" />

    
    <glyph glyph-name="youxiang" unicode="&#58894;" d="M154.199 731.12h714.752c48.778 0 88.755-38.522 89.339-85.82L511.795 402.733 65.3 645.064c0.446 47.406 40.034 86.057 88.899 86.057z m-88.94-178.933l-0.404-429.102c0-47.785 40.202-86.871 89.344-86.871h714.752c49.137 0 89.344 39.086 89.344 86.87V552.403l-436.02-231.224a22.892 22.892 0 0 0-21.396 0L65.26 552.187z"  horiz-adv-x="1024" />

    
    <glyph glyph-name="zuo1" unicode="&#58901;" d="M366.408 384l378.025 378.026c15.982 15.983 15.982 41.934 0 57.917-16.01 15.983-41.904 15.983-57.891 0l-406.957-407.01c-16.01-15.93-16.01-41.88 0-57.864l406.957-406.958c7.673-7.675 18.09-12.04 28.932-12.04 10.868 0 21.287 4.365 28.96 12.04 15.981 15.985 15.981 41.878 0 57.865L366.407 384z"  horiz-adv-x="1024" />

    
    <glyph glyph-name="jiejifuwu" unicode="&#58902;" d="M1007.445 305.088c0-27.925-22.656-50.539-50.538-50.539h-1.451l-19.072-324.33c0-27.926-8.277-50.539-36.139-50.539h-71.573c-27.925 0-39.616 22.635-39.616 50.539l-19.093 324.33h-10.411c-27.925 0-50.517 22.635-50.517 50.539l-21.056 308.203c0 27.925 22.634 50.538 50.538 50.538h234.987c27.925 0 50.539-22.634 50.539-50.538l-16.598-308.203zM862.656 687.68c-55.403 0-100.31 44.907-100.31 100.31 0 55.423 44.907 100.33 100.31 100.33s100.33-44.907 100.33-100.33c0-55.403-44.949-100.31-100.33-100.31z m-174.72-633.963c0-48.085-38.997-43.541-87.125-43.541v-50.368c0-28.587-28.587-51.712-57.174-51.712-28.565 0-51.712 23.125-51.712 51.712v50.368H189.74v-53.077c0-27.094-31.467-47.659-58.518-47.659-27.072 0-53.077 20.587-53.077 47.659v53.077C30.016 10.176 0 5.632 0 53.717v187.84c0 47.424 29.227 116.331 76.16 118.251L136.597 491.2c24.064 47.808 68.864 85.227 116.992 85.227H433.6c48.085 0 103.253-37.632 126.4-87.126l52.245-130.666c42.71-9.174 75.691-67.371 75.691-111.616v-193.302zM79.509 231.381c0-35.712 28.907-64.661 64.662-64.661 35.69 0 64.64 28.95 64.64 64.661S179.86 296 144.17 296c-35.734 0-64.662-28.907-64.662-64.619z m319.744 290.134l-113.258-0.747c-111.83-18.795-123.819-121.216-123.307-154.453l372.48-0.128c0.021 28.736-7.168 137.152-135.915 155.328zM542.976 296c-35.712 0-64.661-28.907-64.661-64.619s28.949-64.661 64.661-64.661 64.64 28.95 64.64 64.661S578.688 296 542.976 296z"  horiz-adv-x="1025" />

    
    <glyph glyph-name="facebook1" unicode="&#58899;" d="M422.586 715.044v-180.957H241.63v-180.956h180.956V-128h180.957V353.131h180.956V534.087H603.543V653.306c0 34.062 27.675 59.609 59.609 59.609H782.37V893.87H601.414C503.484 896 422.586 815.101 422.586 715.044z"  horiz-adv-x="1024" />

    
    <glyph glyph-name="pingfen" unicode="&#58911;" d="M512.34 769.957c-211.933 0-383.74-171.806-383.74-383.74s171.807-383.74 383.74-383.74 383.74 171.807 383.74 383.74-171.805 383.74-383.74 383.74z m190.688-576.984C652.003 141.948 584.16 113.847 512 113.847s-140.002 28.101-191.027 79.126C269.948 243.997 241.847 311.84 241.847 384c0 72.16 28.101 140.002 79.126 191.027C371.998 626.052 439.84 654.153 512 654.153c72.16 0 140.002-28.101 191.028-79.126C754.052 524.002 782.153 456.16 782.153 384c0-72.16-28.101-140.003-79.125-191.027zM512 572.288c-103.823 0-188.288-84.465-188.288-188.288 0-103.823 84.465-188.288 188.288-188.288S700.288 280.177 700.288 384c0 103.823-84.465 188.288-188.288 188.288z"  horiz-adv-x="1024" />

    
    <glyph glyph-name="zuo" unicode="&#58912;" d="M657.592 384l-378.025-378.02599999c-15.982-15.98299999-15.982-41.934 0-57.91699998 16.00999999-15.98299999 41.904-15.98299999 57.891 0l406.957 407.00999997c16.00999999 15.92999999 16.00999999 41.88 0 57.86400001l-406.957 406.95799999c-7.673 7.675-18.09000001 12.04-28.932 12.03999998-10.86800001 0-21.28700001-4.36500001-28.96-12.03999998-15.981-15.985-15.981-41.878 0-57.865L657.593 384z"  horiz-adv-x="1024" />

    
    <glyph glyph-name="xuanze" unicode="&#58910;" d="M482.958 22.572c-14.935 0-29.871 5.514-41.274 16.543L76.301 392.266c-22.85 22.045-22.85 57.838 0 79.901 22.797 22.078 59.808 22.078 82.661 0l323.993-313.181 598.079 578.052c22.85 22.044 59.868 22.044 82.661 0 22.85-22.081 22.85-57.838 0-79.922L524.336 39.117c-11.398-11.037-26.389-16.543-41.381-16.543z"  horiz-adv-x="1226" />

    
    <glyph glyph-name="logo" unicode="&#58913;" d="M512 98.304c-62.464 0-112.64 64.512-112.64 2.048 0-53.248 36.864-98.304 87.04-109.568 2.048-6.144 8.192-15.36 8.192-25.6 0-19.456-19.456-23.552-1.024-29.696 12.288-4.096 26.624-3.072 36.864 0 18.432 5.12-1.024 10.24-1.024 29.696 0 10.24 5.12 18.432 8.192 25.6 50.176 11.264 87.04 56.32 87.04 109.568 0 61.44-50.176-2.048-112.64-2.048zM227.328 329.728C160.768 281.6 89.088 266.24 133.12 204.8c44.032-61.44 134.144-72.704 200.704-24.576s84.992 136.192 40.96 198.656c-43.008 61.44-80.896-1.024-147.456-49.152zM809.984 329.728c-66.56 48.128-104.448 110.592-148.48 49.152-44.032-61.44-25.6-150.528 40.96-198.656s156.672-36.864 200.704 24.576c45.056 62.464-26.624 77.824-93.184 124.928zM305.152 780.288C259.072 846.848 160.768 858.112 86.016 804.864c-74.752-52.224-97.28-149.504-51.2-215.04 47.104-66.56 89.088 2.048 163.84 54.272 74.752 53.248 153.6 69.632 106.496 136.192zM927.744 804.864c-74.752 52.224-173.056 41.984-220.16-24.576-47.104-66.56 31.744-83.968 106.496-136.192s117.76-120.832 163.84-54.272c48.128 66.56 25.6 162.816-50.176 215.04z"  horiz-adv-x="1024" />

    
    <glyph glyph-name="shijian" unicode="&#58916;" d="M542.106 405.094V599.398c0 30.823-24.935 55.655-55.706 55.655-30.976 0-55.706-24.935-55.706-55.655v-250.06a55.45 55.45 0 0 1 55.655-55.706h250.06c30.823 0 55.706 24.986 55.706 55.757 0 30.976-24.934 55.705-55.705 55.705H542.106zM512-128C229.222-128 0 101.222 0 384S229.222 896 512 896s512-229.222 512-512-229.222-512-512-512z"  horiz-adv-x="1024" />

    
    <glyph glyph-name="qiangli" unicode="&#58918;" d="M869.966 168.44a21.69 21.69 0 0 1-3.817 11.736l-3.471 5.04a98.6 98.6 0 0 1-11.321 16.438l-357.433 518.97c-0.04 0.06-0.08 0.111-0.122 0.169a17.587 17.587 0 0 1-0.676 0.91c-0.11 0.138-0.219 0.276-0.331 0.41-0.127 0.152-0.253 0.303-0.382 0.45-0.08 0.095-0.165 0.188-0.249 0.28a23.567 23.567 0 0 1-0.489 0.525l-0.167 0.167a22.666 22.666 0 0 1-0.592 0.58l-0.095 0.087a27.092 27.092 0 0 1-0.68 0.606 20.616 20.616 0 0 1-0.794 0.639l-0.06 0.04a19.95 19.95 0 0 1-0.748 0.546l-0.127 0.084a19.948 19.948 0 0 1-0.7 0.457 17.507 17.507 0 0 1-0.26 0.157 18.77 18.77 0 0 1-0.581 0.342 9.06 9.06 0 0 1-0.44 0.236c-0.14 0.076-0.28 0.151-0.423 0.222a17.562 17.562 0 0 1-0.626 0.3c-0.087 0.038-0.171 0.08-0.256 0.118a33.49 33.49 0 0 1-0.787 0.33c-0.04 0.011-0.08 0.029-0.123 0.045a16.768 16.768 0 0 1-0.882 0.318c-0.02 0.007-0.036 0.015-0.055 0.017a15.003 15.003 0 0 1-0.964 0.294 21.077 21.077 0 0 1-0.892 0.229c-0.034 0.006-0.07 0.016-0.106 0.023a15.817 15.817 0 0 1-0.823 0.167c-0.07 0.012-0.139 0.028-0.21 0.038a14.182 14.182 0 0 1-0.72 0.11c-0.115 0.019-0.23 0.031-0.346 0.045a19.965 19.965 0 0 1-1.096 0.1c-0.158 0.01-0.318 0.021-0.48 0.027a16.09 16.09 0 0 1-0.629 0.015c-0.074 0.002-0.147 0.006-0.222 0.006H240.38c-0.849 0-1.685-0.06-2.507-0.159-9.947 1.245-19.62-4.971-22.597-15.125l-30.109-102.692a0.412 0.412 0 0 0-0.016-0.06l-0.055-0.194c-0.024-0.072-0.038-0.145-0.06-0.217-0.067-0.238-0.133-0.477-0.192-0.715-0.038-0.152-0.07-0.304-0.103-0.458-0.04-0.175-0.08-0.352-0.114-0.532-0.042-0.202-0.076-0.411-0.112-0.614-0.021-0.123-0.04-0.246-0.059-0.367-0.038-0.249-0.07-0.498-0.1-0.747-0.007-0.08-0.019-0.159-0.027-0.239a21.336 21.336 0 0 1-0.071-0.844l-0.009-0.158c-0.02-0.298-0.03-0.596-0.035-0.889v-0.133c-0.005-0.3-0.003-0.597 0.006-0.894a23.67 23.67 0 0 1 0.052-1.002c0.006-0.076 0.012-0.147 0.016-0.228 0.024-0.253 0.048-0.505 0.078-0.757l0.044-0.34c0.03-0.209 0.061-0.42 0.097-0.631 0.026-0.161 0.055-0.315 0.084-0.475l0.097-0.49a32.082 32.082 0 0 1 0.229-0.955c0.06-0.239 0.128-0.477 0.198-0.711 0.024-0.08 0.046-0.161 0.072-0.243 0.082-0.262 0.169-0.52 0.26-0.78 0.019-0.056 0.037-0.112 0.059-0.167 0.097-0.273 0.203-0.543 0.312-0.813l0.057-0.141c0.112-0.266 0.227-0.53 0.348-0.791l0.078-0.167c0.116-0.245 0.236-0.49 0.363-0.733 0.042-0.075 0.082-0.156 0.125-0.236 0.114-0.21 0.232-0.42 0.352-0.628 0.068-0.116 0.135-0.233 0.205-0.346 0.103-0.165 0.205-0.336 0.312-0.5 0.105-0.163 0.213-0.323 0.32-0.486 0.08-0.113 0.16-0.234 0.243-0.348 0.151-0.214 0.308-0.421 0.468-0.629 0.038-0.053 0.074-0.103 0.112-0.151l0.1-0.133 0.067-0.082 60.195-76.995c4.138-5.296 10.23-8.048 16.378-8.048 3.091 0 6.19 0.713 9.07 2.133a21.137 21.137 0 0 1 3.065 0.857l105.233 38.887 63.617-149.72c-31.008 20.899-67.571 32.353-105.547 32.353-51.282 0-99.491-20.437-135.75-57.543-36.263-37.102-56.233-86.436-56.233-138.908 0-52.474 19.97-101.807 56.232-138.914 30.939-31.66 70.583-51.169 113.407-56.217a20.458 20.458 0 0 1 7.252-1.321h447.677c0.85 0 1.69 0.06 2.515 0.159 0.823-0.1 1.663-0.159 2.516-0.159 53.16 0 96.408 44.255 96.408 98.655a100.619 100.619 0 0 1-5.036 31.508z"  horiz-adv-x="1024" />

    
    <glyph glyph-name="resume-language" unicode="&#58919;" d="M192 64h256L243.2-89.6c-25.6-19.2-51.2-6.4-51.2 32V64c-70.4 0-128 57.6-128 128V704c0 70.4 57.6 128 128 128h640c70.4 0 128-57.6 128-128v-512c0-70.4-57.6-128-128-128H192z m512 192L556.8 640h-89.6L320 256h70.4c6.4 0 12.8 0 19.2 6.4l12.8 12.8 25.6 64h147.2l25.6-64c0-6.4 6.4-12.8 12.8-12.8-12.8-6.4-6.4-6.4 0-6.4H704zM563.2 403.2H460.8l32 102.4c0 6.4 6.4 12.8 6.4 25.6s12.8 19.2 12.8 32c0-12.8 6.4-19.2 6.4-32 0-6.4 6.4-19.2 6.4-25.6l38.4-102.4z"  horiz-adv-x="1024" />

    
    <glyph glyph-name="nandu" unicode="&#58920;" d="M356.771-61.237c-6.835 0-10.251 0-17.086 3.416-13.668 6.872-20.503 24.068-17.085 37.807l85.429 336.7H209.798c-13.669 0-27.338 6.871-30.755 20.612-6.834 13.742-3.417 27.483 6.835 37.79L640.397 821.736c10.251 10.306 27.336 13.742 41.006 6.87 13.668-6.87 20.503-24.048 17.085-37.789l-85.429-336.699h198.232c13.667 0 27.337-6.888 30.753-20.63 6.835-13.742 3.418-27.482-6.834-37.789L380.692-50.949c-6.835-6.872-13.668-10.288-23.92-10.288z"  horiz-adv-x="1024" />

    
    <glyph glyph-name="guanbidefuben" unicode="&#58921;" d="M834.661 173.337L561.937 446.058l271.115 271.123c10.207 10.189 10.207 26.719 0 36.906-10.189 10.189-26.704 10.189-36.909 0L525.026 482.97 252.899 755.098c-10.255 10.255-26.873 10.255-37.125 0-10.255-10.255-10.255-26.891 0-37.132l272.127-272.124-269.994-269.994c-10.189-10.189-10.189-26.719 0-36.925 10.207-10.187 26.719-10.187 36.909 0l269.995 270.004 272.723-272.721c10.254-10.255 26.87-10.255 37.132 0 10.253 10.254 10.253 26.868 0 37.132z"  horiz-adv-x="1024" />

    
    <glyph glyph-name="queding" unicode="&#58922;" d="M441.6-76.8c-256 38.4-428.8 275.2-390.4 531.2 38.4 256 275.2 428.8 531.2 390.4 256-38.4 428.8-275.2 390.4-531.2-38.4-256-275.2-428.8-531.2-390.4z m134.4 864C352 825.6 140.8 672 108.8 448s121.6-435.2 345.6-467.2c224-32 435.2 121.6 467.2 345.6C953.6 544 800 755.2 576 787.2z m147.2-268.8c12.8 12.8 6.4 32-6.4 38.4-12.8 12.8-32 6.4-38.4-6.4l-236.8-288L352 371.2c-6.4 12.8-25.6 19.2-38.4 6.4-12.8-6.4-19.2-25.6-6.4-38.4l115.2-140.8c6.4-12.8 25.6-19.2 38.4-6.4 6.4 0 262.4 326.4 262.4 326.4z"  horiz-adv-x="1024" />

    
    <glyph glyph-name="hanglijicun" unicode="&#58923;" d="M896.384 640H768V768.192C768 838.656 710.72 896 640 896H384c-71.232 0-128-57.216-128-127.808V640H127.616C57.28 640 0 582.72 0 512v-448c0-71.168 57.152-128 127.616-128h768.768C966.72-64 1024-6.720000000000027 1024 64V512c0 71.232-57.152 128-127.616 128zM320 0h-64V576h64v-576z m0 768.128C320 803.392 348.992 832 383.808 832h256.384C675.456 832 704 803.456 704 768.128V640H320V768.128zM768 0h-64V576h64v-576z"  horiz-adv-x="1024" />

    
    <glyph glyph-name="tuichu1" unicode="&#58924;" d="M238.66 742.607c-32.013-22.764-60.47-48.552-85.365-77.357-24.898-28.814-46.238-59.933-64.02-93.366-17.785-33.434-31.302-68.826-40.549-106.17a471.038 471.038 0 0 1-13.871-113.636c0-66.157 12.626-128.217 37.878-186.198 25.254-57.973 59.398-108.48 102.434-151.511 43.041-43.043 93.547-77.185 151.52-102.44 57.97-25.253 120.041-37.881 186.187-37.881 65.453 0 127.16 12.628 185.134 37.882 57.978 25.254 108.66 59.398 152.051 102.439 43.393 43.034 77.538 93.54 102.433 151.51 24.902 57.982 37.347 120.042 37.347 186.203 0 37.695-4.446 74.688-13.338 110.967-8.897 36.276-21.52 70.779-37.878 103.504-16.361 32.72-36.64 63.307-60.824 91.76a518.038 518.038 0 0 1-81.094 76.829c-15.651 11.385-32.543 15.65-50.686 12.808-18.133-2.853-32.895-11.74-44.28-26.675-11.387-14.944-15.65-31.66-12.808-50.154 2.853-18.493 11.739-33.435 26.675-44.816 44.818-32.72 79.143-72.909 102.976-120.57 23.826-47.663 35.737-98.877 35.737-153.649 0-46.95-8.89-91.236-26.677-132.85-17.78-41.61-42.142-77.89-73.085-108.832-30.947-30.948-67.226-55.491-108.839-73.628s-85.891-27.206-132.85-27.206c-46.944 0-91.226 9.067-132.84 27.206-41.614 18.14-77.897 42.68-108.838 73.628-30.94 30.94-55.48 67.217-73.621 108.832-18.144 41.614-27.21 85.898-27.208 132.85 0 55.478 12.8 107.946 38.408 157.385 25.61 49.438 61.534 90.159 107.772 122.171 15.647 10.672 25.076 25.256 28.275 43.75 3.203 18.493-0.533 35.57-11.2 51.22-10.673 14.94-25.257 24.009-43.75 27.208-18.496 3.199-35.56-0.53-51.213-11.203l0.007-0.01z m274.223-393.734c18.495 0 34.326 6.582 47.485 19.74 13.16 13.163 19.742 28.992 19.742 47.49V821.57c0 18.495-6.582 34.502-19.742 48.015-13.163 13.515-28.99 20.271-47.485 20.271-19.204 0-35.388-6.758-48.548-20.273s-19.739-29.52-19.739-48.016v-405.469c0-18.495 6.58-34.324 19.739-47.489 13.162-13.154 29.344-19.738 48.548-19.736z"  horiz-adv-x="1024" />

    
    <glyph glyph-name="bianji" unicode="&#58926;" d="M991.820807 745.403725L873.310729 863.74281a109.465454 109.465454 0 0 1-155.197555 0L105.000639 250.630274l-0.085996-0.339986-0.339986-0.256989c-1.024957-1.109954-1.45094-2.559894-2.389901-3.583851-1.961919-2.559894-4.179826-4.777802-5.54577-7.934671L9.612601 32.295342a113.135301 113.135301 0 0 1 24.571979-126.188759 112.964308 112.964308 0 0 1 126.017766-24.656975l205.793453 87.026385s0.169993 0 0.169993 0.169993l0.426982 0.085996c2.047915 0.852965 3.412858 2.389901 5.374777 3.583852 2.047915 1.364943 4.436816 2.388901 6.229741 4.265822l0.339986 0.25599L991.905803 590.290167c42.746225 42.745225 42.746225 112.367333 0 155.112558zM136.910314-55.755001c-24.31599-10.238575-51.789849 5.119787-56.397658 9.726596-4.691805 4.606809-19.02521 28.41182-8.872631 52.557818l65.526278 159.036394 155.283551-155.28355-155.53954-66.037258zM947.880631 634.401335L352.173373 38.695077l-185.572292 185.486296L762.138346 819.717638a47.779016 47.779016 0 0 0 67.317204 0l118.425081-118.425081a47.011047 47.011047 0 0 0 0-66.891222z"  horiz-adv-x="1024" />

    
    <glyph glyph-name="tianjia" unicode="&#58927;" d="M864 448H512V800c0 17.92-14.08 32-32 32s-32-14.08-32-32v-352H96c-17.92 0-32-14.08-32-32s14.08-32 32-32h352v-352c0-17.92 14.08-32 32-32s32 14.08 32 32V384h352c17.92 0 32 14.08 32 32s-14.08 32-32 32z"  horiz-adv-x="1024" />

    
    <glyph glyph-name="profile" unicode="&#58928;" d="M416 1.152V222.848C416 294.176 473.824 352 545.152 352h115.84c62.752 75.2 72.544 172.8 72.544 255.488C733.536 710.08 689.728 832 481.056 832h-8.512c-208.64 0-250.72-121.92-250.72-224.512 0-135.712 34.144-240.192 130.144-304.096v-19.52c-96-15.808-290.08-65.44-290.08-163.328 0-162.88 244.064-181.824 372-184C422.816-44.384 416-22.496 416 1.152zM832 288H576c-53.024 0-96-42.976-96-96v-160c0-53.024 42.976-96 96-96h256c53.024 0 96 42.976 96 96V192c0 53.024-42.976 96-96 96zM703.584 32h-64c-17.696 0-32 14.304-32 32s14.304 32 32 32h64c17.696 0 32-14.304 32-32s-14.304-32-32-32z m64 96h-128c-17.696 0-32 14.304-32 32s14.304 32 32 32h128c17.696 0 32-14.304 32-32s-14.304-32-32-32z"  horiz-adv-x="1024" />

    
    <glyph glyph-name="wancheng" unicode="&#58929;" d="M512-37.875C278.998-37.875 90.125 150.998 90.125 384S278.998 805.875 512 805.875 933.875 617.002 933.875 384 745.002-37.875 512-37.875z m246.825 556.2c-10.659 10.659-27.956 10.659-38.615 0L455.343 253.458 304.607 404.194c-10.434 10.448-27.365 10.448-37.801 0-10.448-10.434-10.448-27.365 0-37.801l164.039-164.039c1.28-2.559 2.658-5.091 4.795-7.229 10.645-10.659 27.942-10.659 38.602 0l284.583 284.583c10.659 10.659 10.659 27.956 0 38.615z"  horiz-adv-x="1024" />

    
    <glyph glyph-name="yingwen" unicode="&#58930;" d="M840.798 763.109H184.472c-63.142 0-114.342-51.2-114.342-114.343V193.43c0-63.142 51.2-114.342 114.342-114.342h206.706l105.703-67.59c8.64-8.638 22.742-8.638 31.381 0l99.224 61.11c4.192 4.193 9.782 6.48 15.754 6.48h197.558c63.142 0 114.342 51.2 114.342 114.342V648.766c0 63.143-51.2 114.343-114.342 114.343zM480.365 293.797c-5.463-4.955-13.213-7.496-22.995-7.496H315.966c-13.086 0-22.995 3.176-29.22 9.528-6.226 6.353-9.402 16.135-9.402 29.094V518.035c0 8.385 1.397 15.5 3.938 21.217 2.922 6.225 7.496 10.799 13.721 13.594 5.59 2.54 12.705 3.811 20.963 3.811h137.338c10.037 0 17.787-2.414 22.996-7.242 5.463-4.954 8.258-11.56 8.258-19.438 0-8.004-2.795-14.61-8.258-19.565-5.336-4.828-13.086-7.242-22.996-7.242h-110.53v-49.548h101.129c9.655 0 17.151-2.414 22.36-7.115 5.336-4.828 8.131-11.307 8.131-19.057s-2.668-14.23-7.877-19.184c-5.082-4.955-12.705-7.369-22.487-7.369H342.9v-59.585h114.47c9.91 0 17.66-2.54 22.995-7.496 5.59-5.082 8.385-11.942 8.385-20.073 0-8.258-2.795-14.865-8.385-19.946zM776.385 322c0-14.865-4.447-39.893-34.176-39.893-5.336 0-10.29 0.762-14.61 2.414-4.447 1.652-8.64 4.193-12.578 7.623-3.557 3.176-6.86 6.988-9.91 11.18-2.794 3.939-5.59 7.877-8.384 11.942L612.875 443.84v-125.65c0-11.307-2.795-20.2-8.385-26.298-5.717-6.353-13.213-9.529-22.106-9.529-9.147 0-16.77 3.304-22.36 9.783-5.463 6.225-8.131 14.991-8.131 26.172V512.953c0 9.147 1.016 16.389 3.176 21.852l0.127 0.127c2.668 6.352 7.242 11.688 13.34 15.627 6.098 3.938 12.832 5.971 19.946 5.971 5.463 0 10.418-1.016 14.61-2.795 3.94-1.779 7.624-4.32 10.546-7.369 2.795-2.795 5.59-6.48 8.385-10.926a950.132 950.132 0 0 1 8.004-12.577l86.138-130.478V520.703c0 11.307 2.668 20.2 7.877 26.298 5.463 6.353 12.831 9.656 21.979 9.656 9.274 0 16.897-3.176 22.36-9.656 5.336-6.098 8.004-14.991 8.004-26.298V322z"  horiz-adv-x="1025" />

    
    <glyph glyph-name="facebook" unicode="&#58936;" d="M512 384m-480 0a480 480 0 1 1 960 0 480 480 0 1 1-960 0ZM632.67168125 365.210025h-85.65011156v-313.78230937H417.25437594V365.210025h-61.71770813V475.48561406h61.71770813v71.36083313c0 51.03069656 24.24043594 130.93942781 130.92231468 130.93942781l96.12321282-0.40215375v-107.04124875h-69.7436625c-11.43997969 0-27.52611469-5.71571156-27.52611469-30.05882625v-64.90070906h96.97885781l-11.33730281-110.17291219z"  horiz-adv-x="1024" />

    
    <glyph glyph-name="twitter1" unicode="&#58937;" d="M32 384c0-264 216-480 480-480s480 216 480 480S776 864 512 864 32 648 32 384zM807.2 518.4c-21.6-9.6-43.2-14.4-64.8-19.2 24 14.4 40.8 36 50.4 62.4-21.6-14.4-48-21.6-72-28.8-21.6 24-52.8 36-84 36-62.4 0-115.2-50.4-115.2-115.2 0-9.6 0-16.8 2.4-26.4-96 4.8-180 50.4-237.6 120-9.6-16.8-14.4-38.4-14.4-57.6 0-40.8 19.2-74.4 50.4-96-19.2 0-36 4.8-52.8 14.4v-2.4c0-55.2 38.4-100.8 91.2-112.8-9.6-2.4-19.2-4.8-31.2-4.8-7.2 0-14.4 0-21.6 2.4 14.4-45.6 57.6-79.2 108-79.2-40.8-31.2-91.2-48-141.6-48-9.6 0-19.2 0-26.4 2.4 52.8-33.6 112.8-52.8 175.2-50.4 211.2 0 326.4 175.2 326.4 326.4V456c21.6 19.2 40.8 40.8 57.6 62.4z"  horiz-adv-x="1024" />

    
    <glyph glyph-name="instagram" unicode="&#58938;" d="M1011.502891 390.320988c0-279.026455-226.652557-505.679012-505.679013-505.679013s-505.679012 226.652557-505.679012 505.679013 226.652557 505.679012 505.679012 505.679012c279.929453 0 505.679012-225.749559 505.679013-505.679012zM690.035519 690.116402H322.515236c-64.112875 0-115.583774-52.373898-115.583774-115.583774v-368.423281c0-64.112875 52.373898-115.583774 115.583774-115.583774h367.520283c64.112875 0 115.583774 52.373898 115.583774 115.583774V574.532628c0 63.209877-52.373898 115.583774-115.583774 115.583774z m33.410934-69.530864h13.544974v-102.038801H635.855624V619.68254l87.590829 0.902998zM420.039046 451.724868c18.962963 26.186949 50.567901 44.246914 85.784832 44.246913 35.216931 0 65.918871-17.156966 85.784833-44.246913 2.708995-3.611993 4.514991-6.320988 6.320987-9.932981 9.029982-15.35097 13.544974-32.507937 13.544974-51.470899 0-57.791887-46.955908-105.650794-105.650794-105.650794-57.791887 0-105.650794 46.955908-105.650793 105.650794 0 18.962963 5.417989 36.119929 13.544973 51.470899 2.708995 3.611993 4.514991 7.223986 6.320988 9.932981z m326.885361-244.712522c0-31.604938-26.186949-57.791887-57.791887-57.791887H322.515236c-31.604938 0-57.791887 26.186949-57.791887 57.791887V451.724868h89.396826c-1.805996-5.417989-4.514991-10.835979-5.41799-17.156967-3.611993-14.447972-6.320988-28.895944-6.320987-44.246913 0-90.299824 73.142857-163.442681 163.44268-163.442681 90.299824 0 163.442681 73.142857 163.442681 163.442681 0 15.35097-1.805996 30.70194-6.320988 44.246913-1.805996 5.417989-3.611993 11.738977-5.417989 17.156967h89.396825V207.012346z"  horiz-adv-x="1026" />

    
    <glyph glyph-name="renshu" unicode="&#58941;" d="M714.12 295.134c-11.306 2.935-20.454 12.015-23.953 23.816-2.295 7.749-3.933 23.015 10.599 38.648 56.354 54.315 91.332 142.78 91.332 231.065 0 133.428-86.084 230.264-204.68 230.264-100.873 0-178.185-70.084-199.057-173.116-24.687 31.386-61.312 50.347-104.423 50.347-79.906 0-137.916-64.743-137.916-153.95 0-56.542 22.119-113.493 57.9-149.495 0.443-0.538 0.904-1.059 1.39-1.57 5.914-6.11 5.888-11.708 4.821-15.335-0.981-3.294-3.643-7.185-8.226-8.388C89.566 345.532 1.647 281.446 1.647 221.389c0-58.624 27.204-81.639 115.038-85.188C173.278 245.009 312.78 308.207 404.89 323.849c14.13 2.397 39.466 12.8 16.98 28.458-24.874 8.354-22.177 8.525-56.345 15.138-4.454 1.272-7.065 5.137-8.012 8.38-1.033 3.507-1.101 8.892 4.334 14.797 19.269 18.662 34.671 43.34 45.065 70.844 15.266-38.98 37.197-74.019 64.247-101.086 0.555-0.717 1.161-1.4 1.801-2.057 12.868-13.32 13.124-26.368 12.297-35.038-1.554-16.179-28.579-28.27-46.891-32.887-130.313-29.159-192.282-81.57-224.333-106.488-32.051-24.925-52.352-66.756-52.352-66.756l-0.008-0.008c-5.957-13.423-9.19-26.863-9.19-40.073 0-106.231 173.874-128 434.943-128 261.069 0 434.936 21.769 434.936 128-0.009 87.552-138.223 185.293-308.241 218.06zM275.2 791.467v-16.359 16.359z"  horiz-adv-x="1024" />

    
    <glyph glyph-name="xiangshang-copy" unicode="&#58943;" d="M860.603 161.16899999999998c40.578 0 66.526 54.184 35.442 85.258l-349.263 349.278c-20.03099999 20.032-49.823 20.032-69.854 0l-349.275-349.278c-30.30499999-30.294-6.679-85.258 34.929-85.258l698.02 1e-8z"  horiz-adv-x="1024" />

    
    <glyph glyph-name="lvyou" unicode="&#58945;" d="M700.2301815 642.35990896m-160.43310303 0a160.43310306 160.43310306 0 1 1 320.86620607 0 160.43310306 160.43310306 0 1 1-320.86620607 0ZM317.60996428 671.00867623l-0.63664022 119.05155038h79.5799089l98.04245637-119.05155038zM111.33882709 75.75093382h418.90866232s238.73973622-0.63664021 341.2386646 71.94024051H89.69309281l21.64573428-71.94024051zM240.57660675 581.87917351l33.10524398 71.30360031c5.09311233 10.82286953 15.9159818 17.82590245 27.37549157 17.82590241h299.22046701c11.45950979 0 22.28237454-6.36639271 27.3754915-16.55262203l40.7449171-81.48982957-427.82161116 8.91294888zM110.06555135 420.80943022l78.30663324 143.88048108c5.72975247 10.18622932 16.55262197 17.1892622 28.64876719 17.18926221H690.04395225c10.18622932 0 19.73581839-4.45647681 26.10221112-12.7327854l115.23171377-147.70031763-721.31232579-0.63664026zM37.48867067 326.58681521999995l52.20442214-178.25900535h781.7930612c69.39368438 49.02122579 124.7813029 132.42097597 115.23170915 272.48162035l-949.22919249-94.222615zM962.52557267 498.47942801l-932.03993495-85.94630643c-7.63967311-0.63664021-13.36942562-7.63967311-12.73278544-15.91598173 0-0.63664021 0-1.90991589 0.63664019-2.54656091l19.73581844-68.12040391 949.22919241 94.22261499c-1.90991589 22.28237454-4.45647681 44.56474896-8.91294892 66.84712822-1.90991589 7.00303291-8.91294885 12.09614522-15.91598173 11.45950977zM789.35968426 187.79944651000005m-10.18622926 0a10.18622932 10.18622932 0 1 1 20.37245856 0 10.18622932 10.18622932 0 1 1-20.37245856 0ZM823.73820398 187.79944651000005m-10.18622933 0a10.18622932 10.18622932 0 1 1 20.37245858 0 10.18622932 10.18622932 0 1 1-20.37245858 0ZM857.4800882 187.79944651000005m-10.18622923 0a10.18622932 10.18622932 0 1 1 20.37245851 0 10.18622932 10.18622932 0 1 1-20.37245851 0ZM198.55841382 532.22130758h118.41491024v-11.45950509h-118.41491024zM359.6281571 532.22130758h118.41491024v-11.45950509h-118.41491024zM521.33453585 532.22130758h118.41491014v-11.45950509h-118.41491014zM651.20895574 607.3447443800001h-138.1507285v35.01516458H632.74641305zM316.97332406 691.38113476h97.40581143v-10.18622923h-97.40581143zM316.97332406 707.93375679h97.40581143v-10.18622927h-97.40581143zM68.04735851 75.75093382h807.25862743c3.18319631 0 5.72975247-2.54655613 5.7297571-5.72975723v-0.63664019c0-3.18319631-2.54655613-5.72975247-5.7297571-5.72975256H68.04735851c-3.18319631 0-5.72975247 2.54655613-5.72975717 5.72975256v0.63664019c0 3.18319631 2.54655613 5.72975247 5.72975717 5.72975723zM68.04735851 52.831919080000034h292.21743886c3.18319631 0 5.72975247-2.54655613 5.72975243-5.72975726v-0.63664021c0-3.18319631-2.54655613-5.72975247-5.72975243-5.72975245h-292.21743886c-3.18319631 0-5.72975247 2.54655613-5.72975717 5.72975245v0.63664021c0 3.81983659 2.54655613 5.72975247 5.72975717 5.72975726zM301.0573423 26.09306779999997h292.21743407c3.18319631 0 5.72975247-2.54655613 5.72975719-5.7297572v-0.63663554c0-3.18319631-2.54655613-5.72975247-5.72975719-5.7297572h-292.21743407c-3.18319631 0-5.72975247 2.54655613-5.72975724 5.7297572v0.63663554c0 3.18319631 2.54655613 5.72975247 5.72975724 5.7297572zM553.80313959-0.6457835100000011h292.21743885c3.18319631 0 5.72975247-2.54655613 5.72975721-5.72975247v-0.63664025c0-3.18319631-2.54655613-5.72975247-5.72975721-5.72975253h-292.21743885c-3.18319631 0-5.72975247 2.54655613-5.72975252 5.72975253v0.63664025c0.63664021 3.18319631 2.54655613 5.72975247 5.72975252 5.72975247zM917.96081901 75.75093382h42.65483306c3.18319631 0 5.72975247-2.54655613 5.72975715-5.72975723v-0.63664019c0-3.18319631-2.54655613-5.72975247-5.72975715-5.72975256h-42.65483306c-3.18319631 0-5.72975247 2.54655613-5.72975247 5.72975256v0.63664019c0.63664021 3.18319631 3.18319631 5.72975247 5.72975247 5.72975723zM609.82739835 52.831919080000034h43.29147333c3.18319631 0 5.72975247-2.54655613 5.72975246-5.72975726v-0.63664021c0-3.18319631-2.54655613-5.72975247-5.72975246-5.72975245h-42.65483315c-3.18319631 0-5.72975247 2.54655613-5.72975249 5.72975245v0.63664021c0 3.81983659 2.54655613 5.72975247 5.09311231 5.72975726zM145.08071134 26.09306779999997h42.65483305c3.18319631 0 5.72975247-2.54655613 5.72975253-5.7297572v-0.63663554c0-3.18319631-2.54655613-5.72975247-5.72975253-5.7297572h-42.65483305c-3.18319631 0-5.72975247 2.54655613-5.72975252 5.7297572v0.63663554c0.63664021 3.18319631 3.18319631 5.72975247 5.72975252 5.7297572zM665.21501687 26.09306779999997h42.65483307c3.18319631 0 5.72975247-2.54655613 5.72975724-5.7297572v-0.63663554c0-3.18319631-2.54655613-5.72975247-5.72975724-5.7297572h-42.65483307c-3.18319631 0-5.72975247 2.54655613-5.72975249 5.7297572v0.63663554c0 3.18319631 2.54655613 5.72975247 5.72975249 5.7297572zM111.33882709-0.6457835100000011H403.5562659c3.18319631 0 5.72975247-2.54655613 5.72975716-5.72975247v-0.63664025c0-3.18319631-2.54655613-5.72975247-5.72975716-5.72975253h-292.21743881c-3.18319631 0-5.72975247 2.54655613-5.72975254 5.72975253v0.63664025c0 3.18319631 2.54655613 5.72975247 5.72975254 5.72975247z"  horiz-adv-x="1024" />

    
    <glyph glyph-name="icon-test" unicode="&#58946;" d="M958.4 140.8c0 30.4-25.6 54.4-59.2 59.2-1.6 22.4-22.4 41.6-51.2 41.6-27.2 0-51.2-19.2-51.2-43.2 0-14.4 9.6-27.2 22.4-35.2-81.6 17.6-196.8 27.2-324.8 27.2-89.6 0-172.8-4.8-243.2-14.4-3.2 32-33.6 56-72 56-36.8 0-67.2-22.4-72-52.8-17.6-6.4-30.4-20.8-30.4-38.4v-6.4c-19.2-9.6-30.4-20.8-30.4-32 0-48 200-88 446.4-88 244.8 0 443.2 38.4 446.4 86.4 12.8 11.2 19.2 25.6 19.2 40M875.2 118.4c0-24-163.2-41.6-363.2-41.6S148.8 94.4 148.8 118.4 310.4 160 512 160c200 0 363.2-19.2 363.2-41.6M308.8 185.6s68.8 22.4 94.4 38.4c25.6 17.6 57.6 16 107.2 11.2 49.6-4.8 43.2-83.2 43.2-83.2l-168-11.2-76.8 44.8zM233.6 548.8c-9.6 1.6-20.8-3.2-22.4-12.8h-1.6c-4.8 0-9.6-3.2-9.6-9.6-9.6 0-12.8-9.6-9.6-17.6h44.8c-1.6 0-1.6 40-1.6 40zM270.4 528c-1.6 8-9.6 11.2-17.6 9.6-1.6 0-3.2-1.6-4.8-1.6 3.2 9.6-3.2 20.8-12.8 24s-20.8-3.2-24-12.8c-1.6-3.2-1.6-8 0-11.2h-1.6c-4.8 0-9.6-3.2-9.6-9.6-9.6 0-12.8-9.6-9.6-17.6h94.4c-1.6 0 1.6 19.2-14.4 19.2m204.8 68.8c1.6 3.2 4.8 6.4 8 6.4 1.6 0 4.8 0 6.4-1.6 1.6 4.8 6.4 9.6 12.8 9.6s11.2-3.2 12.8-9.6c3.2 0 6.4-3.2 6.4-6.4 6.4 0 8-6.4 6.4-11.2h-62.4s-1.6 12.8 9.6 12.8M499.2 611.2c-4.8-1.6-8-4.8-9.6-9.6-1.6 1.6-3.2 1.6-6.4 1.6-4.8 0-8-3.2-8-6.4-11.2 0-9.6-12.8-9.6-12.8h33.6v27.2zM686.4 558.4c-1.6 3.2-4.8 6.4-8 4.8-1.6 0-1.6 0-1.6-1.6-1.6 4.8-4.8 8-9.6 8s-8-3.2-9.6-6.4c-3.2 0-4.8-1.6-4.8-4.8-4.8 0-6.4-4.8-4.8-9.6h46.4c-1.6 0 0 9.6-8 9.6M667.2 569.6c-6.4 0-9.6-3.2-11.2-6.4-3.2 0-4.8-1.6-4.8-4.8-4.8 0-6.4-4.8-4.8-9.6h20.8v20.8zM649.6 640c1.6 4.8 6.4 6.4 9.6 4.8 1.6 0 1.6 0 3.2-1.6 1.6 6.4 8 9.6 12.8 8 3.2-1.6 6.4-3.2 8-8 3.2 0 4.8-1.6 6.4-4.8 4.8 0 8-6.4 4.8-9.6h-52.8s-1.6 11.2 8 11.2m248-152c-1.6 4.8-4.8 8-9.6 8-3.2 0-4.8-1.6-6.4-1.6-1.6 8-9.6 12.8-19.2 11.2-4.8-1.6-9.6-4.8-11.2-9.6-4.8 0-8-3.2-8-6.4-8 0-9.6-8-8-14.4h72c0-3.2 3.2 12.8-9.6 12.8M868.8 504h-1.6c-6.4 0-12.8-4.8-14.4-11.2-3.2 0-8-3.2-8-6.4-8 0-9.6-8-8-14.4h32v32zM896 353.6c1.6 8 9.6 11.2 17.6 9.6 1.6 0 3.2-1.6 4.8-1.6-3.2 9.6 1.6 20.8 12.8 24 9.6 3.2 20.8-1.6 24-12.8 1.6-3.2 1.6-8 0-11.2h1.6c4.8 0 9.6-3.2 9.6-9.6 9.6 0 12.8-9.6 9.6-17.6h-92.8s-3.2 19.2 12.8 19.2M934.4 374.4c-8-1.6-14.4-6.4-16-14.4-3.2 1.6-4.8 3.2-8 3.2-6.4 0-11.2-4.8-12.8-9.6-16 0-12.8-19.2-12.8-19.2h51.2v40zM144 371.2c1.6 6.4 8 9.6 12.8 8 1.6 0 3.2-1.6 3.2-1.6 1.6 8 11.2 12.8 19.2 11.2 4.8-1.6 9.6-4.8 11.2-9.6 4.8 0 8-3.2 8-6.4 8 0 9.6-8 8-14.4H134.4c0-3.2-3.2 12.8 9.6 12.8M174.4 387.2c-6.4-1.6-11.2-4.8-12.8-11.2-4.8 3.2-11.2 3.2-16-1.6-1.6-1.6-1.6-1.6-1.6-3.2-12.8 0-11.2-14.4-11.2-14.4h40c1.6-1.6 1.6 30.4 1.6 30.4zM758.4 323.2c-6.4-1.6-11.2-4.8-12.8-11.2-4.8 3.2-11.2 3.2-16-1.6-1.6-1.6-1.6-1.6-1.6-3.2-12.8 0-11.2-14.4-11.2-14.4h40l1.6 30.4zM376 704c0-27.2-22.4-48-49.6-48-25.6 0-46.4 20.8-48 48 0 27.2 22.4 48 48 48s49.6-20.8 49.6-48M726.4 270.4h9.6v-3.2h-9.6v3.2z m6.4-6.4h9.6v-3.2h-9.6v3.2z m0-6.4h9.6v-3.2h-9.6v3.2z m20.8-3.2h9.6v-3.2h-9.6v3.2z m-8-6.4h9.6v-3.2h-9.6v3.2z m-209.6 59.2h12.8v-4.8h-12.8v4.8z m8-8h12.8v-4.8H544v4.8z m-8-9.6h12.8v-4.8h-12.8v4.8z m27.2-4.8h12.8v-4.8h-12.8v4.8z m-9.6-6.4h12.8v-6.4h-12.8v6.4z m-6.4-28.8h12.8v-4.8h-12.8v4.8zM443.2 315.2h-30.4v-60.8H384v60.8h-110.4v19.2l104 155.2h35.2v-152h30.4v-22.4zM384 339.2v99.2 24c-1.6-3.2-4.8-9.6-9.6-17.6L304 339.2h80zM468.8 366.4c0 41.6 6.4 73.6 20.8 94.4 14.4 20.8 33.6 32 60.8 32 49.6 0 75.2-40 75.2-121.6 0-40-6.4-70.4-20.8-91.2-14.4-20.8-33.6-32-59.2-32-24 0-43.2 9.6-56 30.4-14.4 20.8-20.8 49.6-20.8 88zM544 235.2c-28.8 0-51.2 12.8-67.2 36.8-14.4 22.4-22.4 54.4-22.4 96 0 44.8 8 78.4 22.4 102.4 16 25.6 41.6 38.4 72 38.4 41.6 0 89.6-24 89.6-136 0-43.2-8-76.8-24-99.2-16-25.6-40-38.4-70.4-38.4z m4.8 244.8c-20.8 0-36.8-8-48-25.6-12.8-19.2-19.2-48-19.2-86.4 0-35.2 6.4-62.4 17.6-80 11.2-16 24-24 43.2-24 20.8 0 35.2 8 48 25.6 12.8 19.2 19.2 46.4 19.2 83.2 0 107.2-44.8 107.2-60.8 107.2zM809.6 315.2h-30.4v-60.8h-28.8v60.8H640v19.2l104 155.2h35.2v-152h30.4v-22.4z m-59.2 24v99.2 24c-1.6-3.2-4.8-9.6-9.6-17.6L672 339.2h78.4zM337.6 227.2h6.4v-3.2h-6.4v3.2z m400 0h9.6v-3.2h-9.6v3.2z m-184 14.4h12.8v-4.8h-12.8v4.8z m9.6-8h12.8v-4.8h-12.8v4.8z m25.6 12.8h12.8v-4.8h-12.8v4.8z m8-6.4h12.8v-4.8h-12.8V240zM523.2 379.2L704 116.8H523.2V379.2zM633.6 124.8s-16 19.2 19.2 32 48 36.8 81.6 54.4c0 0 22.4 9.6 46.4 0s17.6-24 48-27.2c30.4-3.2 30.4-16 19.2-43.2-3.2-9.6 4.8-16 4.8-16H633.6zM153.6 116.8s16 33.6 49.6 46.4c35.2 12.8 40 20.8 73.6 40 0 0 22.4 11.2 46.4 0 24-9.6 40-24 68.8-27.2 30.4-3.2 48-27.2 89.6-43.2 41.6-17.6 43.2-16 43.2-16H153.6zM342.4 182.4c-30.4 3.2-44.8 17.6-68.8 27.2-17.6 8-35.2 4.8-41.6 1.6 0 0-1.6-16 25.6-20.8 27.2-4.8 48-12.8 68.8-22.4 20.8-9.6 120-48 176-46.4-24 1.6-48 6.4-70.4 16-40 19.2-59.2 41.6-89.6 44.8M251.2 116.8L336 256l3.2-139.2h-88zM334.4 256l96-139.2h-96V256zM342.4 222.4h6.4v-3.2h-6.4v3.2zM337.6 222.4h6.4v-3.2h-6.4v3.2z m14.4-1.6h6.4v-3.2H352v3.2z m-4.8-4.8h6.4v-3.2h-6.4v3.2z m-6.4-14.4h6.4v-3.2h-6.4v3.2z m3.2-4.8h6.4v-3.2h-6.4v3.2z m4.8-3.2h6.4v-3.2h-6.4v3.2z m14.4 6.4h6.4v-3.2h-6.4v3.2z m3.2-3.2h6.4v-3.2h-6.4v3.2z m51.2-41.6h6.4v-1.6h-6.4v1.6z m3.2-4.8h6.4v-1.6h-6.4v1.6z m-6.4-3.2h6.4v-3.2h-6.4v3.2z m-1.6-4.8h6.4v-1.6h-6.4v1.6z m11.2 0h6.4v-1.6h-6.4v1.6zM446.4 144h6.4v-1.6h-6.4V144z m4.8-3.2h6.4v-1.6h-6.4v1.6zM358.4 116.8l164.8 262.4v-262.4H358.4zM667.2 164.8h11.2v-4.8h-11.2v4.8z m6.4-6.4h11.2v-4.8h-11.2v4.8zM600 116.8l123.2 195.2v-195.2h-123.2zM723.2 312l134.4-195.2h-134.4V312zM742.4 222.4h9.6v-3.2h-9.6v3.2zM748.8 220.8h9.6v-3.2h-9.6v3.2z m19.2 4.8h9.6v-3.2H768v3.2z m6.4-4.8h9.6v-3.2h-9.6v3.2z m0-52.8h8v-3.2h-8v3.2z m4.8-6.4h8v-3.2h-8v3.2z m-8-4.8h8v-3.2h-8v3.2z m-4.8-6.4h8v-3.2h-8v3.2z m17.6 0h8v-3.2H784v3.2z m32 3.2h8v-3.2H816v3.2z m6.4-4.8h8v-3.2h-8v3.2z m-206.4 20.8h11.2v-4.8h-11.2v4.8z m6.4-8h11.2v-4.8h-11.2v4.8zM612.8 153.6h11.2v-4.8h-11.2v4.8zM606.4 145.6h11.2v-4.8h-11.2v4.8zM556.8 212.8h12.8v-4.8h-12.8v4.8zM304 206.4s-4.8-1.6-11.2-1.6c-6.4 0-11.2 0-11.2 1.6 0 0 4.8 1.6 11.2 1.6 6.4 0 11.2-1.6 11.2-1.6M316.8 227.2c0 1.6 0 1.6 0 0-1.6 1.6-1.6 1.6 0 0-1.6 1.6-1.6 1.6-3.2 1.6h-3.2v-1.6h-1.6v-6.4s-1.6 0-1.6 1.6c0 0-1.6 3.2-3.2 3.2s-1.6 1.6-3.2 3.2-4.8 1.6-4.8 0-1.6-3.2-4.8-4.8c-1.6-1.6-1.6-3.2-1.6-3.2 0-1.6-1.6-3.2-1.6-3.2h1.6v-12.8h1.6s0 1.6-1.6 1.6c0 0-1.6 1.6-1.6 3.2v3.2c0 1.6 1.6 3.2 1.6 3.2V211.2l1.6-3.2v-3.2h1.6l-1.6 1.6s-1.6 1.6-1.6 3.2-1.6 1.6-1.6 3.2 0 1.6 1.6 3.2c0 1.6 1.6 3.2 1.6 3.2s1.6 0 3.2-1.6h3.2v-12.8h1.6c0 1.6-1.6 0-1.6 1.6v3.2c0 1.6 0 1.6 1.6 3.2 0 1.6 1.6 1.6 1.6 0v-8h3.2v1.6l-1.6 1.6v3.2 1.6 1.6 3.2l1.6 1.6c8 0 6.4 3.2 8 4.8 1.6 1.6 0 1.6 0 3.2H316.8c-1.6 0 0 0 0 0s-1.6 0 0 0c-1.6 0 0 0 0 0M288 206.4s-1.6 1.6-1.6 3.2v3.2s1.6 1.6 1.6 3.2c0 0-1.6-1.6-1.6-3.2 0 0 0-1.6-1.6-1.6 1.6 1.6 1.6-1.6 3.2-4.8-1.6 1.6 0 0 0 0 1.6 0 0 0 0 0m4.8 1.6s-1.6 1.6-1.6 3.2-1.6 1.6-1.6 3.2 0 1.6 1.6 3.2c0 1.6 1.6 3.2 1.6 3.2 0-1.6-1.6-3.2-1.6-4.8v-3.2c0-3.2 0-3.2 1.6-4.8-1.6 0-1.6 0 0 0 0-1.6 0-1.6 0 0 0-1.6 0-1.6 0 0m4.8 0v3.2c0 1.6 0 1.6 1.6 3.2v1.6c0-1.6 0-1.6-1.6-3.2v-6.4c1.6 1.6 0 1.6 0 1.6m6.4-1.6l-1.6 1.6c-1.6 1.6 0 1.6 0 3.2v1.6 1.6 3.2l1.6 1.6c8 0 6.4 3.2 8 4.8 1.6 1.6 0 1.6 0 3.2h1.6l1.6 1.6h-1.6-1.6V224c0-1.6-1.6-3.2-3.2-3.2h-3.2l-1.6-1.6v-6.4c-1.6-3.2-1.6-4.8 0-6.4-1.6 0-1.6 0 0 0"  horiz-adv-x="1024" />

    
    <glyph glyph-name="visa" unicode="&#58947;" d="M0 896h1649.777778v-1024H0zM631.466667 187.733333l65.422222 389.688889h105.244444l-65.422222-389.688889h-105.244444z m489.244444 378.311111c-19.911111 8.533333-54.044444 17.066667-93.866667 17.066667-105.244444 0-179.2-54.044444-179.2-128 0-56.888889 54.044444-88.177778 93.866667-105.244444 39.822222-19.911111 54.044444-31.288889 54.044445-48.355556 0-25.6-34.133333-36.977778-62.577778-36.977778-42.666667 0-65.422222 5.688889-99.555556 19.911111l-14.222222 5.688889-14.222222-88.177777c25.6-11.377778 71.111111-19.911111 116.622222-19.911112 110.933333 0 184.888889 51.2 184.888889 133.688889 0 45.511111-28.444444 76.8-88.177778 105.244445-36.977778 17.066667-59.733333 31.288889-59.733333 48.355555 0 17.066667 19.911111 34.133333 59.733333 34.133334 34.133333 0 59.733333-5.688889 79.644445-14.222223l8.533333-5.688888 14.222222 82.488888m273.066667 8.533334h-82.488889c-25.6 0-45.511111-5.688889-56.888889-31.288889l-156.444444-355.555556h110.933333s17.066667 48.355556 22.755555 59.733334h136.533334c2.844444-14.222222 14.222222-56.888889 14.222222-56.888889H1479.111111l-85.333333 384m-130.844445-250.311111c8.533333 22.755556 42.666667 108.088889 42.666667 108.088889s8.533333 22.755556 14.222222 36.977777l8.533334-34.133333s19.911111-93.866667 25.6-110.933333h-91.022223z m-719.644444 253.155555l-102.4-264.533333-14.222222 51.2c-19.911111 62.577778-79.644444 128-147.911111 162.133333l93.866666-338.488889H483.555556l170.666666 389.688889h-110.933333M344.177778 577.422222H170.666667v-8.533333c133.688889-31.288889 221.866667-110.933333 256-201.955556l-36.977778 179.2c-5.688889 22.755556-22.755556 28.444444-45.511111 31.288889"  horiz-adv-x="1649" />

    
    <glyph glyph-name="paypal" unicode="&#58948;" d="M0 896h1649.777778v-1024H0zM1095.111111 566.044444h-105.244444c-5.688889 0-14.222222-5.688889-14.222223-11.377777l-42.666666-270.222223c0-5.688889 2.844444-8.533333 8.533333-8.533333H995.555556c5.688889 0 8.533333 2.844444 8.533333 8.533333l11.377778 76.8c0 5.688889 5.688889 11.377778 14.222222 11.377778h34.133333c68.266667 0 108.088889 34.133333 119.466667 99.555556 5.688889 28.444444 0 51.2-14.222222 68.266666-11.377778 17.066667-36.977778 25.6-73.955556 25.6z m11.377778-99.555555c-5.688889-36.977778-34.133333-36.977778-62.577778-36.977778h-17.066667l11.377778 71.111111c0 2.844444 2.844444 8.533333 8.533334 8.533334h5.688888c19.911111 0 36.977778 0 45.511112-11.377778 11.377778-8.533333 11.377778-17.066667 8.533333-31.288889zM344.177778 566.044444H238.933333c-5.688889 0-14.222222-5.688889-14.222222-11.377777l-42.666667-270.222223c0-5.688889 2.844444-8.533333 8.533334-8.533333h51.2c5.688889 0 14.222222 5.688889 14.222222 11.377778l11.377778 73.955555c0 5.688889 5.688889 11.377778 14.222222 11.377778H312.888889c68.266667 0 108.088889 34.133333 119.466667 99.555556 5.688889 28.444444 0 51.2-14.222223 68.266666-11.377778 17.066667-36.977778 25.6-73.955555 25.6z m11.377778-99.555555c-5.688889-36.977778-34.133333-36.977778-62.577778-36.977778h-14.222222l11.377777 71.111111c0 2.844444 2.844444 8.533333 8.533334 8.533334h5.688889c19.911111 0 36.977778 0 45.511111-11.377778 8.533333-8.533333 8.533333-17.066667 5.688889-31.288889z m304.355555 2.844444h-51.2c-2.844444 0-8.533333-2.844444-8.533333-8.533333l-2.844445-14.222222-2.844444 5.688889c-11.377778 14.222222-34.133333 19.911111-59.733333 19.911111-56.888889 0-102.4-42.666667-113.777778-102.4-5.688889-28.444444 2.844444-56.888889 19.911111-76.8 14.222222-17.066667 36.977778-25.6 62.577778-25.6 45.511111 0 68.266667 28.444444 68.266666 28.444444l-2.844444-14.222222c0-5.688889 2.844444-8.533333 8.533333-8.533333H625.777778c5.688889 0 14.222222 5.688889 14.222222 11.377777l28.444444 173.511112c0 5.688889-2.844444 11.377778-8.533333 11.377777z m-71.111111-99.555555c-5.688889-28.444444-28.444444-48.355556-56.888889-48.355556-14.222222 0-25.6 5.688889-34.133333 14.222222-8.533333 8.533333-11.377778 19.911111-8.533334 34.133334 5.688889 28.444444 28.444444 48.355556 56.888889 48.355555 14.222222 0 25.6-5.688889 34.133334-14.222222 8.533333-8.533333 11.377778-19.911111 8.533333-34.133333zM1410.844444 469.333333h-51.2c-2.844444 0-8.533333-2.844444-8.533333-8.533333l-2.844444-14.222222-2.844445 5.688889c-11.377778 14.222222-34.133333 19.911111-59.733333 19.911111-56.888889 0-102.4-42.666667-113.777778-102.4-5.688889-28.444444 2.844444-56.888889 19.911111-76.8 14.222222-17.066667 36.977778-25.6 62.577778-25.6 45.511111 0 68.266667 28.444444 68.266667 28.444444l-2.844445-14.222222c0-5.688889 2.844444-8.533333 8.533334-8.533333h45.511111c5.688889 0 14.222222 5.688889 14.222222 11.377777l28.444444 173.511112c2.844444 5.688889 0 11.377778-5.688889 11.377777z m-71.111111-99.555555c-5.688889-28.444444-28.444444-48.355556-56.888889-48.355556-14.222222 0-25.6 5.688889-34.133333 14.222222s-11.377778 19.911111-8.533333 34.133334c5.688889 28.444444 28.444444 48.355556 56.888889 48.355555 14.222222 0 25.6-5.688889 34.133333-14.222222 8.533333-8.533333 11.377778-19.911111 8.533333-34.133333zM927.288889 469.333333h-51.2c-5.688889 0-8.533333-2.844444-11.377778-5.688889l-71.111111-102.4-28.444444 99.555556c-2.844444 5.688889-8.533333 11.377778-14.222223 11.377778h-48.355555c-5.688889 0-11.377778-5.688889-8.533334-11.377778l56.888889-164.977778-51.2-73.955555c-2.844444-5.688889 0-14.222222 5.688889-14.222223h51.2c5.688889 0 8.533333 2.844444 11.377778 5.688889l167.822222 244.622223c2.844444 2.844444 0 11.377778-8.533333 11.377777zM1470.577778 557.511111l-42.666667-275.911111c0-5.688889 2.844444-8.533333 8.533333-8.533333H1479.111111c5.688889 0 14.222222 5.688889 14.222222 11.377777L1536 554.666667c0 5.688889-2.844444 8.533333-8.533333 8.533333H1479.111111c-5.688889 2.844444-8.533333 0-8.533333-5.688889z"  horiz-adv-x="1649" />

    
    <glyph glyph-name="americanexpress" unicode="&#58949;" d="M0 896h1649.777778v-1024H0zM204.8 537.6l-25.6 65.422222-25.6-65.422222zM861.866667 597.333333c-5.688889 2.844444-11.377778 2.844444-19.911111 2.844445h-48.355556v-36.977778h48.355556c8.533333 0 14.222222 0 19.911111 2.844444 5.688889 2.844444 8.533333 8.533333 8.533333 17.066667-2.844444 5.688889-5.688889 11.377778-8.533333 14.222222zM1208.888889 603.022222l-25.6-65.422222h51.2zM1638.4 230.4v130.844444H665.6l-34.133333-36.977777-34.133334 36.977777h-241.777777v-281.6h236.088888l36.977778 36.977778 34.133334-36.977778h150.755555v62.577778h8.533333c19.911111 0 36.977778 2.844444 51.2 8.533334v-71.111112H1536c68.266667 0 110.933333 39.822222 110.933333 105.244445 0 17.066667-2.844444 31.288889-8.533333 45.511111z m-816.355556-42.666667h-51.2v-62.577777H682.666667L631.466667 184.888889l-54.044445-62.577778h-176.355555v196.266667h179.2l51.2-59.733334 54.044444 59.733334H824.888889c48.355556 0 76.8-22.755556 76.8-65.422222 0-45.511111-28.444444-65.422222-79.644445-65.422223z m264.533334 11.377778c5.688889-11.377778 8.533333-19.911111 8.533333-36.977778v-39.822222h-48.355555v31.288889c0 11.377778 0 25.6-5.688889 34.133333-5.688889 5.688889-14.222222 8.533333-31.288889 8.533334H967.111111v-71.111111h-48.355555v196.266666H1024c22.755556 0 36.977778 0 54.044444-8.533333 17.066667-11.377778 25.6-25.6 25.6-42.666667 0-28.444444-14.222222-42.666667-28.444444-51.2 0-8.533333 8.533333-14.222222 11.377778-19.911111z m176.355555 73.955556h-102.4V241.777778h99.555556v-42.666667h-99.555556v-34.133333h102.4v-42.666667h-150.755555v196.266667h150.755555v-45.511111z m110.933334-150.755556h-88.177778v45.511111h88.177778c8.533333 0 14.222222 0 17.066666 2.844445s5.688889 5.688889 5.688889 11.377777-2.844444 8.533333-5.688889 11.377778-8.533333 2.844444-14.222222 2.844445h-8.533333c-36.977778 0-85.333333 2.844444-85.333334 62.577777 0 31.288889 17.066667 59.733333 65.422223 59.733334h85.333333v-45.511111h-82.488889c-8.533333 0-11.377778 0-17.066667-2.844445-2.844444-2.844444-5.688889-5.688889-5.688888-11.377778s2.844444-11.377778 8.533333-11.377777c2.844444-2.844444 8.533333-2.844444 17.066667-2.844445h25.6c25.6 0 39.822222-5.688889 51.2-17.066666 11.377778-11.377778 14.222222-22.755556 14.222222-42.666667-2.844444-39.822222-25.6-62.577778-71.111111-62.577778z m162.133333 0h-88.177778v45.511111H1536c8.533333 0 14.222222 0 17.066667 2.844445s5.688889 5.688889 5.688889 11.377777-2.844444 8.533333-5.688889 11.377778c-2.844444 2.844444-8.533333 2.844444-14.222223 2.844445h-8.533333c-36.977778 0-85.333333 2.844444-85.333333 62.577777 0 31.288889 17.066667 59.733333 65.422222 59.733334h88.177778v-45.511111h-82.488889c-8.533333 0-11.377778 0-17.066667-2.844445-2.844444-2.844444-5.688889-5.688889-5.688889-11.377778s2.844444-11.377778 8.533334-11.377777c2.844444-2.844444 8.533333-2.844444 17.066666-2.844445h25.6c25.6 0 39.822222-5.688889 51.2-17.066666s14.222222-22.755556 14.222223-42.666667c-2.844444-39.822222-28.444444-62.577778-73.955556-62.577778zM449.422222 273.066667v-28.444445h96.711111v-45.511111h-96.711111v-31.288889h102.4l48.355556 54.044445-45.511111 51.2zM770.844444 230.4h51.2c17.066667 0 25.6 8.533333 25.6 22.755556s-8.533333 22.755556-25.6 22.755555H768l2.844444-45.511111zM722.488889 150.755556v139.377777l-59.733333-68.266666zM1032.533333 418.133333c25.6-11.377778 48.355556-14.222222 62.577778-14.222222h82.488889l17.066667 42.666667h31.288889l17.066666-42.666667h307.2v284.444445H1097.955556c-25.6 0-45.511111-5.688889-65.422223-14.222223v14.222223h-597.333333l-25.6-59.733334-25.6 59.733334H116.622222l-113.777778-281.6h145.066667l17.066667 42.666666h31.288889l17.066666-42.666666h822.044445l-2.844445 11.377777z m-492.088889 28.444445h-48.355555v139.377778l-56.888889-139.377778h-39.822222l-56.888889 139.377778v-139.377778H241.777778l-17.066667 42.666666H136.533333l-19.911111-42.666666H65.422222l79.644445 196.266666h68.266666l68.266667-170.666666v170.666666h73.955556l54.044444-125.155555 51.2 125.155555h76.8v-196.266666h2.844444z m176.355556 153.6h-102.4v-31.288889h99.555556V526.222222h-99.555556v-34.133333h102.4v-42.666667h-150.755556V642.844444h150.755556v-42.666666z m196.266667-76.8c5.688889-11.377778 8.533333-19.911111 8.533333-36.977778v-39.822222h-48.355556v31.288889c0 11.377778 0 25.6-5.688888 34.133333-5.688889 5.688889-17.066667 8.533333-31.288889 8.533333h-42.666667v-68.266666h-51.2V642.844444h102.4c22.755556 0 36.977778 0 54.044444-8.533333 17.066667-11.377778 22.755556-25.6 22.755556-42.666667 0-31.288889-19.911111-45.511111-28.444444-51.2 8.533333-5.688889 17.066667-11.377778 19.911111-17.066666z m79.644444-76.8h-51.2V642.844444h48.355556l2.844444-196.266666z m17.066667 99.555555c0 36.977778 8.533333 56.888889 25.6 76.8 14.222222 17.066667 36.977778 22.755556 65.422222 22.755556h42.666667v-45.511111h-42.666667c-17.066667 0-25.6-2.844444-31.288889-11.377778-8.533333-8.533333-11.377778-22.755556-11.377778-39.822222s2.844444-34.133333 11.377778-42.666667c5.688889-8.533333 19.911111-8.533333 28.444445-8.533333h14.222222l62.577778 150.755555h68.266666l68.266667-170.666666v170.666666h71.111111v-2.844444l71.111111-122.311111V642.844444h48.355556v-196.266666h-65.422223v2.844444L1359.644444 583.111111v-136.533333h-91.022222v2.844444l-17.066666 39.822222h-85.333334l-17.066666-42.666666h-51.2c-14.222222 0-45.511111 2.844444-65.422223 22.755555-19.911111 19.911111-22.755556 39.822222-22.755555 76.8zM1012.622222 273.066667h-48.355555v-36.977778h48.355555c8.533333 0 14.222222 0 19.911111 2.844444 5.688889 2.844444 8.533333 8.533333 8.533334 17.066667s-2.844444 11.377778-8.533334 14.222222c-2.844444 2.844444-11.377778 2.844444-19.911111 2.844445z"  horiz-adv-x="1649" />

    
    <glyph glyph-name="mastercard" unicode="&#58950;" d="M0 896h1649.777778v-1024H0zM1345.422222 386.844444c0-176.355556-142.222222-315.733333-315.733333-315.733333s-315.733333 142.222222-315.733333 315.733333 142.222222 315.733333 315.733333 315.733334 315.733333-139.377778 315.733333-315.733334zM955.733333 386.844444c0-176.355556-142.222222-315.733333-315.733333-315.733333s-315.733333 142.222222-315.733333 315.733333 142.222222 315.733333 315.733333 315.733334 315.733333-139.377778 315.733333-315.733334zM836.266667 637.155556c-73.955556-56.888889-122.311111-147.911111-122.311111-250.311112s48.355556-190.577778 122.311111-250.311111c73.955556 56.888889 122.311111 147.911111 122.311111 250.311111s-48.355556 193.422222-122.311111 250.311112z"  horiz-adv-x="1649" />

    
    <glyph glyph-name="quxiao1" unicode="&#58951;" d="M514.614 800.707c-229.243 0-415.081-185.838-415.081-415.081s185.838-415.081 415.081-415.081 415.081 185.838 415.081 415.081S743.856 800.707 514.614 800.707z m143.457-560.679c-10.724-10.724-25.809-9.765-25.809-9.765-19.704 0-28.774 10.811-28.774 10.811l-88.875 88.875-88.873-88.875s-9.07-10.811-28.775-10.811c0 0-15.083-0.959-25.808 9.765 0 0-12.033 12.381-12.033 27.728 0 0 0 19.704 12.207 29.644l88.015 87.817-89.005 89.005c-13.776 13.776-10.985 29.47-10.985 29.47 0 16.915 10.637 25.459 10.637 25.459 11.683 11.683 25.983 11.857 25.983 11.857 18.658 0 29.644-11.857 29.644-11.857l88.992-88.792 88.994 88.792s10.985 11.857 29.644 11.857c0 0 14.3-0.174 25.983-11.857 0 0 10.637-8.544 10.637-25.459 0 0 2.789-15.694-10.987-29.47l-89.005-89.005 88.017-87.817c12.206-9.941 12.206-29.644 12.206-29.644 0.002-15.346-12.03-27.728-12.03-27.728z"  horiz-adv-x="1024" />

    
    <glyph glyph-name="queshengtu" unicode="&#58952;" d="M2.081301 893.918699h1536v-1019.837398H2.081301zM1536 891.837398v-1015.674796H4.162602V891.837398h1531.837398m4.162602 4.162602H0v-1024h1540.162602V896zM792.97561 282.43252c-21.645528 0-38.712195 22.894309-38.712195 1.248781 0-18.731707 12.904065-33.717073 29.970731-38.712195 1.24878-2.913821 2.913821-4.995122 2.913821-8.741464 0-6.243902-6.243902-7.908943 0-9.990244 3.746341-1.24878 8.741463-1.24878 12.904066 0 6.243902 1.24878 0 3.746341 0 9.990244 0 3.746341 1.24878 6.243902 2.913821 8.741464 17.899187 3.746341 29.970732 19.980488 29.970731 38.712195-1.24878 21.645528-19.147967-1.24878-39.960975-1.248781zM693.489431 363.603252c-23.726829-16.650407-48.702439-22.894309-32.884553-43.707317 14.985366-21.645528 46.621138-24.97561 69.931707-8.741463 23.726829 16.650407 29.970732 47.869919 14.985366 69.515447-15.401626 22.478049-29.138211-0.41626-52.03252-17.066667zM896.62439 363.603252c-23.726829 16.650407-36.630894 38.712195-51.61626 17.899187-14.985366-21.645528-8.741463-52.865041 14.985366-69.515447s54.946341-12.904065 69.931707 8.741463c16.234146 20.813008-8.741463 25.80813-33.300813 42.874797zM720.130081 520.949593c-16.650407 22.894309-51.61626 27.889431-76.59187 8.741464-26.64065-18.731707-33.717073-52.865041-17.899187-74.926829 16.650407-22.894309 31.635772 1.24878 57.860163 18.731707s53.281301 24.55935 36.630894 47.453658zM938.250407 529.691057c-26.64065 18.731707-59.941463 14.985366-76.59187-8.741464-16.650407-22.894309 11.239024-28.721951 37.879674-47.869918 26.64065-19.147967 41.626016-42.874797 57.860163-18.731708s7.492683 57.443902-19.147967 75.34309z"  horiz-adv-x="1540" />

    
    <glyph glyph-name="zuo-copy" unicode="&#58954;" d="M598.87758163 384l-225.57487909-225.57547582c-9.53677063-9.53736734-9.53677063-25.02283442 0-34.56020175 9.55347877-9.53736734 25.00493283-9.53736734 34.54468706 0l242.8391669 242.87079303c9.55347877 9.50574122 9.55347877 24.99061156 0 34.52857564l-242.8391669 242.83976363c-4.57862853 4.57982196-10.79465529 7.18450247-17.26428782 7.18450246-6.48514724 0-12.70236745-2.60468051-17.28099596-7.18450246-9.53617391-9.53856079-9.53617391-24.98941813 0-34.52917236L598.87817836 384z"  horiz-adv-x="1024" />

    
    <glyph glyph-name="jia" unicode="&#58955;" d="M832 320H576v-256c0-35.328-28.672-64-64-64-35.392 0-64 28.672-64 64V320H192c-35.392 0-64 28.672-64 64s28.608 64 64 64h256V704c0 35.328 28.608 64 64 64 35.328 0 64-28.672 64-64v-256h256c35.328 0 64-28.672 64-64s-28.672-64-64-64z"  horiz-adv-x="1024" />

    
    <glyph glyph-name="jian" unicode="&#58957;" d="M192 448h640c35.328 0 64-28.672 64-64s-28.672-64-64-64H192c-35.392 0-64 28.672-64 64s28.608 64 64 64z"  horiz-adv-x="1024" />

    
    <glyph glyph-name="lianxi" unicode="&#58953;" d="M832.695 566.26c7.608-25.654 11.649-52.476 11.649-80.084 0-184.109-179.502-333.358-400.93-333.358-46.285 0-90.732 6.534-132.098 18.532l62.875 38.71c20.994-3.431 42.573-5.437 64.718-5.437 194.06 0 351.378 137.662 351.378 307.455 0 169.803-157.317 307.455-351.378 307.455S87.532 681.882 87.532 512.079c0-98.367 53.002-185.719 135.145-242.012v-153.288l79.191 48.755c64.101-74.732 166.19-123.084 281.196-123.084 22.147 0 43.725 2.006 64.718 5.446l151.515-93.291V107.884c82.142 56.302 135.144 143.645 135.144 242.021 0 84.374-38.854 160.8-101.746 216.355z m-218.096-17.017c22.397 0 40.542-18.16 40.542-40.534 0-22.392-18.145-40.553-40.542-40.553s-40.544 18.161-40.544 40.553c-0.001 22.375 18.147 40.534 40.544 40.534z m-162.174 0c22.397 0 40.542-18.16 40.542-40.534 0-22.392-18.145-40.553-40.542-40.553-22.396 0-40.543 18.161-40.543 40.553 0 22.375 18.147 40.534 40.543 40.534z m-202.717-40.534c0 22.375 18.146 40.534 40.543 40.534 22.396 0 40.543-18.16 40.543-40.534 0-22.392-18.147-40.553-40.543-40.553-22.397 0-40.543 18.161-40.543 40.553z"  horiz-adv-x="1024" />

    
    <glyph glyph-name="PrivateCustomizab" unicode="&#58958;" d="M929.976 686.595L813.437 803.133c-29.88 29.88-75.449 29.134-105.332-0.748l-57.52-57.521L873.2 522.249l56.775 56.774c29.881 30.628 29.134 77.691 0 107.572zM117.204 210.735C106 194.3 91.058 122.585 71.636 0.819v-1.494c0-14.94 5.229-29.882 14.94-41.087 8.964-11.205 26.146-16.434 40.34-14.94h1.494c117.284 18.675 187.504 33.616 209.168 46.316l-220.374 221.12zM846.307 496.102L623.691 718.717 512.384 607.41 289.769 384.794l-145.672-145.67 222.616-222.617 54.533 54.534 323.465 323.464L856.766 506.56l-10.459-10.458zM308.445 810.602c-29.882 29.882-75.45 29.882-105.332 0L85.082 691.824c-29.882-29.88-27.64-73.956 1.494-103.838l38.846-38.846 119.525 119.525a18.935 18.935 0 0 0 26.892 0 18.936 18.936 0 0 0 0-26.893L152.315 522.248l45.569-45.57 119.524 119.525a18.936 18.936 0 0 0 26.894 0 18.937 18.937 0 0 0 0-26.892L224.776 449.785l38.846-38.845 222.616 222.616L308.445 810.602zM938.939 180.854l-176.3 176.3-222.615-222.616 14.94-14.94L674.49 239.121a18.935 18.935 0 0 0 26.892 0 18.936 18.936 0 0 0 0-26.893L581.858 92.705l56.774-56.774 119.524 119.524a18.936 18.936 0 0 0 26.894 0 18.937 18.937 0 0 0 0-26.893L665.526 9.037l51.546-51.545c29.88-29.881 75.449-29.881 104.584-0.747l118.03 118.778c26.893 28.388 28.387 77.69-0.747 105.331z"  horiz-adv-x="1024" />

    
    <glyph glyph-name="FlatRate" unicode="&#58959;" d="M827.055 361.722H586.79v-108.856h115.908v21.81c0 50.76 21.791 45.552 54.427 16.433l121.25-94.957c10.4-8.399 12.973-20.024 12.973-24.318s-2.573-14.624-12.973-22.412l-121.25-88.064c-32.636-27.01-54.427-35.277-54.427 15.238v22.057H586.79v-95.872c0-37.082-34.7-67.416-77.107-67.416-42.413 0-77.106 30.334-77.106 67.416v95.872H201.38c-37.487 0-68.16 34.7-68.16 77.107s30.673 77.107 68.16 77.107h231.196V361.722H316.96c-0.098 0.054-0.2 0.133-0.296 0.187v-21.997c0-50.76-21.793-45.552-54.424-16.432l-121.25 94.955c-10.396 8.394-12.773 17.34-12.773 24.191s2.378 14.756 12.773 22.54l121.25 88.068c32.631 27.007 54.424 35.27 54.424-15.24v-22.072c0.096 0 0.198 0.013 0.296 0.013h105.662l-189.05 198.982c-27.78 29.77-25.521 75.45 5.014 101.52 30.541 26.067 78.258 23.046 106.04-6.72l165.057-176.842L674.738 809.718c27.78 29.764 75.503 32.786 106.039 6.72 30.535-26.072 32.795-71.752 5.014-101.521L596.735 515.936h230.319c37.49 0 68.16-34.695 68.16-77.107 0-42.406-30.67-77.107-68.159-77.107z"  horiz-adv-x="1024" />

    
    <glyph glyph-name="RealLocals" unicode="&#58960;" d="M512.176 192.777S776.943 351.939 776.943 565.91c0 146.227-118.54 264.767-264.767 264.767s-264.767-118.54-264.767-264.766c0-213.972 264.767-373.135 264.767-373.135z m1.123 509.53c68.91-0.586 127.217-58.893 127.803-127.803 0.613-72.095-57.952-130.661-130.047-130.047-68.91 0.586-127.217 58.893-127.803 127.804-0.614 72.095 57.952 130.66 130.047 130.047zM735.829 247.241c-16.46-16.358-47.347-45.95-70.623-67.106-9.372-8.52-5.585-23.988 6.636-27.31 10.312-2.803 20.241-5.885 29.716-9.235 13.337-4.716 24.607-9.556 34.022-14.218 11.103-5.497 11.103-21.277 0-26.774-9.416-4.662-20.685-9.502-34.022-14.218-53.222-18.817-120.752-29.18-190.15-29.18s-136.927 10.364-190.15 29.18c-13.336 4.716-24.606 9.556-34.021 14.218-11.103 5.497-11.103 21.277 0 26.774 9.416 4.662 20.685 9.502 34.022 14.218 9.827 3.474 20.142 6.658 30.867 9.543 12.238 3.29 16.04 18.78 6.667 27.309-23.293 21.195-54.215 50.848-70.681 67.238-6.638 6.608-16.557 8.588-25.258 5.122-82.703-32.94-135.166-82.01-135.166-136.817 0-99.18 171.798-179.581 383.72-179.581s383.72 80.401 383.72 179.58c0 54.548-51.969 103.413-133.996 136.348-8.705 3.496-18.649 1.522-25.303-5.09z"  horiz-adv-x="1024" />

    
    <glyph glyph-name="HandPickedGuides" unicode="&#58961;" d="M432.299 225.365C295.765 225.365 0 154.71 0 7.765v-105.984h546.133l19.968 171.435-132.949 152.15h-0.853m288.768 372.82c0 131.414-107.52 239.02-238.934 239.02A239.787 239.787 0 0 1 243.2 598.271c0-131.413 107.52-239.019 238.933-239.019 131.414 0 238.934 107.52 238.934 238.934m340.309-382.379l-159.403 32.853-78.336 152.15-78.421-152.15-159.317-32.853 110.933-126.89-20.139-172.545 146.944 73.814 146.859-73.814-20.139 172.544z"  horiz-adv-x="1109" />

    
    <glyph glyph-name="icon-test1" unicode="&#58964;" d="M102.4 396.8l243.2-192 601.6 550.4S985.6 793.6 1024 768c12.8-12.8 25.6-38.4 0-76.8L384-38.4s-51.2-64-102.4 0L12.8 320s-25.6 51.2 12.8 76.8c12.8 12.8 38.4 25.6 76.8 0"  horiz-adv-x="1038" />

    
    <glyph glyph-name="icon" unicode="&#58890;" d="M875.25707555-19.07981590999998L158.7511008-19.07981590999998c-65.95196363 0-119.41589585 53.46393222-119.41589586 119.41987008L39.33520494 637.71622316c0 65.95196363 53.46393222 119.41589585 119.41589586 119.41589585l716.50597475 0c65.94534077 0 119.41589585-53.46393222 119.41589585-119.41589585l0-537.37616899C994.67164709 34.38411500999996 941.20241632-19.07981590999998 875.25707555-19.07981590999998M158.7511008 40.63011846999996l716.50597475 0c32.97333318 0 59.70463585 26.73395258 59.70463585 59.7099357L934.96171269 518.29635308l-835.91789637 0 0-417.95629891c0-32.97730742 26.73262827-59.70993568 59.70993569-59.7099357L158.7511008 40.63011846999996zM875.25707555 697.4274831600001L158.7511008 697.4274831600001c-32.97333318 0-59.70596146-26.73262827-59.70596146-59.71126l0-59.70993569 835.91789637 0L934.96303701 637.71622316C934.96171269 670.69485489 908.23438298 697.4274831600001 875.25707555 697.4274831600001M188.60871856 339.17052155l298.54040307 0c16.48600444 0 29.85761648-13.36101494 29.85761647-29.85231793 0-16.48600444-13.37161333-29.85761648-29.85761647-29.85761647L188.60871856 279.46058586000004c-16.4926273 0-29.85761648 13.37161333-29.85761647 29.85761647C158.7511008 325.80950659999996 172.11608997 339.17052155 188.60871856 339.17052155M188.60871856 219.75727432999997l238.83576592 0c16.48600444 0 29.85231792-13.36234054 29.85231793-29.85231792 0-16.48732876-13.36631478-29.85761648-29.85231793-29.85761648L188.60871856 160.04733993000002c-16.4926273 0-29.85761648 13.37028772-29.85761647 29.85761648C158.7511008 206.39493506999997 172.11608997 219.75727432999997 188.60871856 219.75727432999997M606.56899171 339.17052155l59.70463584 0c16.48600444 0 29.85761648-13.36101494 29.85761647-29.85231793 0-16.48600444-13.37161333-29.85761648-29.85761647-29.85761647l-59.70463584 0c-16.49660154 0-29.85761648 13.37161333-29.85761648 29.85761647C576.71004963 325.80950659999996 590.07106457 339.17052155 606.56899171 339.17052155"  horiz-adv-x="1024" />

    
    <glyph glyph-name="renshu1" unicode="&#58962;" d="M512.392 443.866c110.054 0 199.296 94.041 199.296 210.048S622.446 864 512.392 864C402.3 864 313.096 769.958 313.096 653.914c-0.038-116.007 89.203-210.048 199.296-210.048z m337.766-316.608c-29.606 135.82-137.702 235.89-337.19 235.89-164.39 0-288.115-52.492-335.846-234.815C120.674-87.36 294.664-96 512.968-96c224.256 0 381.35 20.39 337.19 223.258z"  horiz-adv-x="1024" />

    
    <glyph glyph-name="xing" unicode="&#58963;" d="M66.362 551.297h281.466L468.487 835.323s31.443 81.975 80.44 0c26.107-63.985 120.66-284.026 120.66-284.026h281.466s109.398-27.423 0-121.685-201.025-162.27-201.025-162.27l80.44-284.026s29.543-112.177-80.44-81.17C632.22-20.414 508.782 105 508.782 105L267.537-97.855s-117.516-45.266-80.44 81.17c33.492 112.836 80.44 284.028 80.44 284.028L66.512 429.613c-0.147-0.075-102.962 67.862-0.147 121.684z"  horiz-adv-x="1024" />

    
    <glyph glyph-name="linkedin" unicode="&#58965;" d="M511.99572219 384.00427781m-479.99572219 0a479.99572219 479.99572219 0 1 1 959.99144344 0 479.99572219 479.99572219 0 1 1-959.99144344 0ZM798.78841719 345.38078530999996v-197.89192218H684.05593719V332.11839843999996c0 46.35845906-16.56514875 78.01705969-58.10636625 78.01705969-31.7013825 0-50.53397156-21.31393875-58.85077125-41.95192407-3.02040188-7.37559844-3.79903219-17.61758344-3.79903219-27.96224437v-192.72387h-114.74103563s1.54014844 312.70140938 0 345.07018875h114.74959219v-48.89970282c-0.2310225-0.38503688-0.55616438-0.76151812-0.76151812-1.12944187h0.76151812v1.12944187c15.24746625 23.46159 42.43963781 57.00259406 103.40383406 57.00259313 75.48437156 0 132.07625906-49.31896594 132.07625907-155.28971344z m-470.25856313 313.52282157c-39.24810844 0-64.92580031-25.76325562-64.92580031-59.61228938 0-33.1302975 24.93328688-59.63795812 63.41987719-59.63795812h0.744405c40.01818219 0 64.90013063 26.50766062 64.90013156 59.63795812-0.76151812 33.84903375-24.88194844 59.61228937-64.13861344 59.61228938z m-58.10636718-511.41474375H385.12174156v345.07874531H270.42348687v-345.07874531z"  horiz-adv-x="1024" />

    
    <glyph glyph-name="logo1" unicode="&#58966;" d="M575.738776 70.530612c-68.963265 0-123.297959 68.963265-123.29796 3.134694 0-57.469388 38.661224-105.534694 92.995919-120.163265 3.134694-6.269388 9.404082-17.763265 9.404081-27.167347 0-20.897959-20.897959-24.032653 0-33.436735 12.538776-3.134694 30.302041-3.134694 38.661225 0 20.897959 6.269388 0 12.538776 0 33.436735 0 12.538776 6.269388 20.897959 9.404081 27.167347 54.334694 12.538776 92.995918 60.604082 92.995919 120.163265 3.134694 65.828571-54.334694-3.134694-120.163265-3.134694zM265.404082 323.395918c-72.097959-51.2-150.465306-68.963265-102.4-135.836734s147.330612-78.367347 219.428571-27.167347 92.995918 147.330612 44.930612 217.338775-89.861224-3.134694-161.959183-54.334694z m635.297959 0c-72.097959 51.2-114.938776 120.163265-163.004082 54.334694S710.530612 214.726531 782.628571 160.391837c72.097959-51.2 171.363265-38.661224 219.428572 27.167347 49.110204 66.873469-29.257143 84.636735-101.355102 135.836734z m-551.706123 491.102041C297.795918 886.595918 189.126531 899.134694 107.62449 841.665306S3.134694 678.661224 54.334694 606.563265s96.130612 3.134694 180.767347 60.604082c81.502041 56.42449 165.093878 75.232653 113.893877 147.330612z m681.27347 27.167347C948.767347 899.134694 840.097959 886.595918 788.897959 814.497959c-51.2-72.097959 36.571429-89.861224 117.028572-147.330612s129.567347-132.702041 180.767347-60.604082c49.110204 72.097959 25.077551 177.632653-56.42449 235.102041zM4617.404082 528.195918v-38.661224h-78.367347v-211.069388H4493.061224V489.534694h-78.367346v38.661224h202.710204z m29.257142-249.730612V552.228571l44.930613 6.269388v-92.995918c6.269388 3.134694 9.404082 3.134694 17.763265 3.134694s12.538776 3.134694 17.763265 3.134694c14.628571 0 27.167347-3.134694 38.661225-6.269388 9.404082-3.134694 17.763265-9.404082 24.032653-17.763265 6.269388-9.404082 9.404082-17.763265 12.538775-27.167347 3.134694-12.538776 3.134694-20.897959 3.134694-36.571429v-105.534694h-44.930612v99.265306c0 9.404082 0 17.763265-3.134694 27.167347 0 6.269388-3.134694 12.538776-6.269388 17.763265-3.134694 3.134694-6.269388 9.404082-12.538775 9.404082-6.269388 3.134694-12.538776 3.134694-17.763265 3.134694-6.269388 0-12.538776 0-17.763266-3.134694-6.269388-3.134694-9.404082-3.134694-12.538775-3.134694v-150.465306h-43.885715z m202.710205 92.995918c0 17.763265 3.134694 30.302041 6.269387 44.930613s12.538776 24.032653 20.89796 30.302041c9.404082 9.404082 17.763265 14.628571 27.167346 17.763265 12.538776 3.134694 20.897959 6.269388 33.436735 6.269388 27.167347 0 44.930612-9.404082 60.604082-24.032653 14.628571-14.628571 20.897959-38.661224 20.897959-72.09796v-17.763265h-123.297959c0-14.628571 6.269388-27.167347 14.628571-36.571429 9.404082-9.404082 24.032653-12.538776 41.795919-12.538775 12.538776 0 20.897959 0 30.30204 3.134694 9.404082 3.134694 14.628571 3.134694 20.89796 6.269388l6.269387-36.571429c-3.134694 0-6.269388-3.134694-9.404081-3.134694-3.134694 0-9.404082-3.134694-14.628572-3.134694-6.269388 0-12.538776-3.134694-17.763265-3.134694h-17.763265c-17.763265 0-30.302041 3.134694-41.795919 6.269388-12.538776 6.269388-20.897959 12.538776-30.302041 20.897959-9.404082 9.404082-14.628571 17.763265-17.763265 30.302041-10.44898 16.718367-10.44898 28.212245-10.448979 42.840816z m126.432653 18.808164c0 6.269388 0 12.538776-3.134694 17.763265s-3.134694 9.404082-6.269388 14.628571c-3.134694 3.134694-6.269388 6.269388-12.538776 9.404082-6.269388 3.134694-9.404082 3.134694-17.763265 3.134694-6.269388 0-12.538776 0-17.763265-3.134694-6.269388-3.134694-9.404082-6.269388-12.538776-9.404082-3.134694-3.134694-6.269388-9.404082-9.404081-14.628571-3.134694-6.269388-3.134694-12.538776-3.134694-14.628571h81.502041l1.044898-3.134694z m285.257142-118.07347c-17.763265 0-36.571429 3.134694-51.2 9.404082-14.628571 6.269388-27.167347 14.628571-38.661224 24.032653s-17.763265 24.032653-24.032653 41.795918c-6.269388 14.628571-9.404082 36.571429-9.404082 54.334694s3.134694 38.661224 9.404082 54.334694c6.269388 14.628571 14.628571 30.302041 27.167347 41.795919 12.538776 12.538776 24.032653 20.897959 38.661224 24.032653 14.628571 6.269388 30.302041 9.404082 48.065306 9.404081 9.404082 0 20.897959 0 27.167347-3.134694 9.404082-3.134694 14.628571-3.134694 20.89796-6.269387 6.269388-3.134694 12.538776-3.134694 14.628571-6.269388 3.134694-3.134694 6.269388-3.134694 9.404082-6.269388l-12.538776-36.571428c-6.269388 3.134694-14.628571 6.269388-24.032653 9.404081-12.538776 3.134694-20.897959 6.269388-36.571428 6.269388-12.538776 0-20.897959-3.134694-30.302041-6.269388-9.404082-3.134694-17.763265-9.404082-24.032653-17.763265-6.269388-6.269388-12.538776-17.763265-14.628572-27.167347-3.134694-12.538776-6.269388-24.032653-6.269388-38.661225 0-12.538776 0-24.032653 3.134694-36.571428 3.134694-12.538776 9.404082-20.897959 14.628572-30.302041 6.269388-9.404082 14.628571-14.628571 24.032653-17.763265 9.404082-3.134694 20.897959-6.269388 36.571428-6.269388s30.302041 3.134694 38.661225 6.269388c9.404082 3.134694 17.763265 6.269388 24.032653 9.404081l12.538775-36.571428c-3.134694-3.134694-6.269388-3.134694-12.538775-6.269388s-12.538776-3.134694-17.763265-6.269388c-6.269388-3.134694-14.628571-3.134694-24.032653-3.134694l-22.987756 1.044898z m118.07347 6.269388V552.228571l44.930612 6.269388v-92.995918c6.269388 3.134694 9.404082 3.134694 17.763265 3.134694s12.538776 3.134694 17.763266 3.134694c14.628571 0 27.167347-3.134694 38.661224-6.269388 9.404082-3.134694 17.763265-9.404082 24.032653-17.763265 6.269388-9.404082 9.404082-17.763265 12.538776-27.167347 3.134694-12.538776 3.134694-20.897959 3.134694-36.571429v-105.534694h-44.930613v99.265306c0 9.404082 0 17.763265-3.134693 27.167347 0 6.269388-3.134694 12.538776-6.269388 17.763265-3.134694 3.134694-6.269388 9.404082-12.538776 9.404082-6.269388 3.134694-12.538776 3.134694-17.763265 3.134694-6.269388 0-12.538776 0-17.763265-3.134694-6.269388 0-9.404082-3.134694-12.538776-3.134694v-150.465306h-43.885714z m259.134694 244.506123c0-9.404082-3.134694-14.628571-9.404082-17.763266-6.269388-3.134694-12.538776-6.269388-17.763265-6.269387s-14.628571 3.134694-17.763265 6.269387c-6.269388 6.269388-9.404082 12.538776-9.404082 17.763266 0 9.404082 3.134694 14.628571 9.404082 20.897959 6.269388 6.269388 12.538776 6.269388 17.763265 6.269388 6.269388 0 12.538776-3.134694 17.763265-6.269388 6.269388-6.269388 9.404082-12.538776 9.404082-20.897959z m-3.134694-244.506123H5590.204082V468.636735h44.930612v-190.171429z m54.334694 183.902041c9.404082 3.134694 17.763265 6.269388 33.436734 6.269388 14.628571 0 27.167347 3.134694 44.930613 3.134694 14.628571 0 27.167347-3.134694 38.661224-6.269388 9.404082-3.134694 17.763265-9.404082 24.032653-17.763265 6.269388-9.404082 9.404082-17.763265 12.538776-27.167347 3.134694-12.538776 3.134694-20.897959 3.134694-36.571429v-105.534694h-44.930613v99.265306c0 9.404082 0 17.763265-3.134693 27.167347 0 6.269388-3.134694 12.538776-6.269388 17.763265-3.134694 3.134694-6.269388 9.404082-12.538776 9.404082-6.269388 3.134694-12.538776 3.134694-17.763265 3.134694h-17.763265c-6.269388 0-9.404082 0-12.538776-3.134694v-153.6h-44.930612V462.367347h3.134694z m273.763265 9.404082c14.628571 0 27.167347-3.134694 36.571429-6.269388 9.404082-3.134694 17.763265-9.404082 24.032653-14.628572s9.404082-14.628571 12.538775-24.032653c3.134694-9.404082 3.134694-17.763265 3.134694-30.30204v-114.938776c-6.269388 0-17.763265-3.134694-30.302041-6.269388-14.628571-3.134694-30.302041-3.134694-44.930612-3.134694-12.538776 0-20.897959 0-30.302041 3.134694-9.404082 3.134694-17.763265 6.269388-24.032653 9.404082-6.269388 3.134694-12.538776 12.538776-14.628571 17.763265-3.134694 9.404082-6.269388 17.763265-6.269388 27.167347 0 12.538776 3.134694 20.897959 6.269388 27.167347 3.134694 6.269388 9.404082 14.628571 17.763265 17.763265s14.628571 9.404082 24.032653 9.404082c9.404082 0 17.763265 3.134694 30.302041 3.134694h14.628571c6.269388 0 12.538776-3.134694 17.763266-3.134694v6.269388c0 6.269388 0 9.404082-3.134694 14.628571 0 6.269388-3.134694 9.404082-6.269388 12.538776-3.134694 3.134694-6.269388 6.269388-12.538776 9.404081-6.269388 3.134694-12.538776 3.134694-17.763265 3.134694-9.404082 0-17.763265 0-27.167347-3.134694-9.404082 0-14.628571-3.134694-20.897959-6.269387l-6.269388 36.571428c6.269388 3.134694 14.628571 3.134694 24.032653 6.269388 9.404082 8.359184 21.942857 8.359184 33.436735 8.359184z m3.134694-163.004082c12.538776 0 24.032653 0 30.302041 3.134694v48.065306c-3.134694 0-6.269388 0-9.404082 3.134694h-30.302041c-6.269388 0-9.404082-3.134694-12.538775-3.134694l-9.404082-9.404082c-3.134694-3.134694-3.134694-9.404082-3.134694-12.538775 0-9.404082 3.134694-17.763265 9.404082-20.897959 7.314286-2.089796 15.673469-8.359184 25.077551-8.359184z m388.702041 219.428571v-38.661224h-78.367347v-211.069388h-44.930612V489.534694h-78.367347v38.661224h201.665306z m126.432653-102.4c-3.134694 0-9.404082 3.134694-14.628572 3.134694-6.269388 0-14.628571 3.134694-20.897959 3.134694h-14.628571c-6.269388 0-9.404082-3.134694-12.538776-3.134694v-150.465306H6373.877551V459.232653c9.404082 3.134694 17.763265 6.269388 30.302041 9.404082 12.538776 3.134694 27.167347 3.134694 41.795918 3.134694h20.897959c3.134694 0 9.404082 0 12.538776-3.134694 3.134694 0 6.269388-3.134694 9.404082-3.134694l-7.314286-39.706123z m102.4 45.975511c14.628571 0 27.167347-3.134694 36.571428-6.269388s17.763265-9.404082 24.032653-14.628572c6.269388-6.269388 9.404082-14.628571 12.538776-24.032653s3.134694-17.763265 3.134694-30.30204v-114.938776c-6.269388 0-17.763265-3.134694-30.302041-6.269388-14.628571-3.134694-30.302041-3.134694-44.930612-3.134694-12.538776 0-20.897959 0-30.302041 3.134694-9.404082 3.134694-17.763265 6.269388-24.032653 9.404082-6.269388 6.269388-12.538776 12.538776-14.628572 17.763265-3.134694 9.404082-6.269388 17.763265-6.269387 27.167347 0 12.538776 3.134694 20.897959 6.269387 27.167347 3.134694 6.269388 9.404082 14.628571 17.763266 17.763265 6.269388 6.269388 14.628571 9.404082 24.032653 9.404082 9.404082 3.134694 17.763265 3.134694 30.302041 3.134694h14.628571c6.269388 0 12.538776-3.134694 17.763265-3.134694v6.269388c0 6.269388 0 9.404082-3.134693 14.628571 0 6.269388-3.134694 9.404082-6.269388 12.538776-3.134694 3.134694-6.269388 6.269388-12.538776 9.404081-6.269388 3.134694-12.538776 3.134694-17.763265 3.134694-9.404082 0-17.763265 0-27.167347-3.134694-9.404082-3.134694-14.628571-3.134694-20.897959-6.269387l-6.269388 36.571428c6.269388 3.134694 14.628571 3.134694 24.032653 6.269388 9.404082 8.359184 20.897959 8.359184 33.436735 8.359184z m3.134694-163.004082c12.538776 0 24.032653 0 30.302041 3.134694v48.065306c-3.134694 0-6.269388 0-9.404082 3.134694h-30.302041c-6.269388 0-9.404082-3.134694-12.538775-3.134694l-9.404082-9.404082c-3.134694-3.134694-3.134694-9.404082-3.134694-12.538775 0-9.404082 3.134694-17.763265 9.404082-20.897959 4.179592-5.22449 12.538776-8.359184 25.077551-8.359184z m171.363265-30.302041c-12.538776 24.032653-24.032653 54.334694-36.571429 84.636735-12.538776 30.302041-24.032653 65.828571-36.571428 102.4h44.930612c3.134694-12.538776 6.269388-20.897959 9.404082-33.436735 3.134694-12.538776 6.269388-24.032653 12.538775-36.571428 3.134694-12.538776 9.404082-24.032653 12.538776-36.571429 3.134694-12.538776 9.404082-20.897959 12.538775-30.302041 3.134694 9.404082 6.269388 17.763265 12.538776 30.302041 3.134694 12.538776 9.404082 24.032653 12.538775 36.571429 3.134694 12.538776 9.404082 24.032653 12.538776 36.571428 3.134694 12.538776 6.269388 24.032653 9.404081 33.436735h44.930613c-9.404082-36.571429-20.897959-72.097959-36.571429-102.4-14.628571-30.302041-24.032653-60.604082-36.571428-84.636735h-37.616327z m126.432653 92.995918c0 17.763265 3.134694 30.302041 6.269388 44.930613s12.538776 24.032653 20.897959 30.302041c9.404082 9.404082 17.763265 14.628571 27.167347 17.763265 12.538776 3.134694 20.897959 6.269388 33.436735 6.269388 27.167347 0 44.930612-9.404082 60.604081-24.032653 14.628571-14.628571 20.897959-38.661224 20.897959-72.09796v-17.763265h-123.297959c0-14.628571 6.269388-27.167347 14.628572-36.571429s24.032653-12.538776 41.795918-12.538775c12.538776 0 20.897959 0 30.302041 3.134694 9.404082 3.134694 14.628571 3.134694 20.897959 6.269388l6.269388-36.571429c-3.134694 0-6.269388-3.134694-9.404082-3.134694-3.134694 0-9.404082-3.134694-14.628571-3.134694-6.269388 0-12.538776-3.134694-17.763266-3.134694h-17.763265c-17.763265 0-30.302041 3.134694-41.795918 6.269388-12.538776 3.134694-20.897959 12.538776-30.302041 20.897959s-14.628571 17.763265-17.763265 30.302041c-10.44898 16.718367-10.44898 28.212245-10.44898 42.840816z m126.432653 18.808164c0 6.269388 0 12.538776-3.134694 17.763265-3.134694 6.269388-3.134694 9.404082-6.269388 14.628571-3.134694 3.134694-6.269388 6.269388-12.538775 9.404082-6.269388 3.134694-9.404082 3.134694-17.763265 3.134694-6.269388 0-12.538776 0-17.763266-3.134694-6.269388-3.134694-9.404082-6.269388-12.538775-9.404082-3.134694-3.134694-6.269388-9.404082-9.404082-14.628571-3.134694-6.269388-3.134694-12.538776-3.134694-14.628571h81.502041v-3.134694z m153.6-114.938776c-12.538776 0-24.032653 3.134694-33.436735 3.134694-9.404082 3.134694-14.628571 6.269388-20.897959 12.538776-6.269388 6.269388-9.404082 12.538776-12.538775 17.763265-3.134694 6.269388-3.134694 14.628571-3.134694 24.032653V550.138776l44.930612 6.269387v-228.832653c0-3.134694 3.134694-6.269388 6.269388-9.404081 3.134694-3.134694 6.269388-3.134694 9.404081-6.269388 3.134694-3.134694 9.404082-3.134694 14.628572-3.134694l-5.22449-33.436735z m129.567347 3.134694V528.195918h159.869388v-38.661224h-114.938776V425.795918h102.4v-38.661224h-102.4v-72.097959h123.297959v-38.661225h-168.228571v2.089796z m280.032653 129.567347l38.661225 57.469388h44.930612l-63.738776-89.861225c12.538776-17.763265 27.167347-33.436735 38.661225-51.2 12.538776-17.763265 20.897959-33.436735 30.302041-48.065306h-48.065306c-3.134694 3.134694-6.269388 9.404082-9.404082 14.628572-3.134694 6.269388-6.269388 12.538776-12.538776 14.628571-3.134694 6.269388-9.404082 12.538776-12.538775 17.763265-3.134694 6.269388-9.404082 12.538776-12.538776 14.628572-9.404082-9.404082-17.763265-20.897959-24.032653-33.436735-9.404082-12.538776-14.628571-20.897959-20.897959-30.302041h-41.795918c3.134694 6.269388 9.404082 14.628571 12.538775 24.032653 3.134694 9.404082 12.538776 14.628571 17.763266 24.032653 6.269388 9.404082 12.538776 17.763265 17.763265 24.032653 6.269388 6.269388 12.538776 14.628571 17.763265 24.032654l-63.738775 92.995918h48.065306l42.840816-55.379592z m295.706123-36.571429c0-14.628571-3.134694-27.167347-6.269388-38.661224-3.134694-12.538776-9.404082-20.897959-14.628572-30.302041-6.269388-9.404082-14.628571-14.628571-27.167347-20.897959-9.404082-6.269388-20.897959-6.269388-36.571428-6.269388-9.404082 0-17.763265 0-24.032653 3.134694-6.269388 3.134694-14.628571 6.269388-17.763265 6.269388v-72.097959h-44.930613V462.367347c9.404082 3.134694 20.897959 6.269388 33.436735 6.269388 12.538776 3.134694 27.167347 3.134694 41.795918 3.134694s27.167347-3.134694 38.661225-6.269388c12.538776-6.269388 20.897959-12.538776 30.302041-20.897959s14.628571-17.763265 17.763265-30.302041c6.269388-12.538776 9.404082-27.167347 9.404082-42.840817z m-45.975511 0c0 17.763265-3.134694 36.571429-12.538775 44.930613-9.404082 12.538776-24.032653 14.628571-41.795919 14.628571h-12.538775c-3.134694 0-9.404082 0-12.538776-3.134694v-105.534694c3.134694-3.134694 9.404082-6.269388 14.628572-6.269387 6.269388-3.134694 12.538776-3.134694 20.897959-3.134694 14.628571 0 27.167347 6.269388 36.571429 14.628571 2.089796 11.493878 7.314286 26.122449 7.314285 43.885714z m78.367347 0c0 17.763265 3.134694 30.302041 6.269388 44.930613s12.538776 24.032653 20.897959 30.302041c9.404082 9.404082 17.763265 14.628571 27.167347 17.763265 12.538776 3.134694 20.897959 6.269388 33.436735 6.269388 27.167347 0 44.930612-9.404082 60.604082-24.032653 14.628571-14.628571 20.897959-38.661224 20.897959-72.09796v-17.763265h-123.297959c0-14.628571 6.269388-27.167347 14.628571-36.571429s24.032653-12.538776 41.795918-12.538775c12.538776 0 20.897959 0 30.302041 3.134694s14.628571 3.134694 20.897959 6.269388l6.269388-36.571429c-3.134694 0-6.269388-3.134694-9.404082-3.134694-3.134694 0-9.404082-3.134694-14.628571-3.134694s-12.538776-3.134694-17.763265-3.134694h-17.763266c-17.763265 0-30.302041 3.134694-41.795918 6.269388-12.538776 3.134694-20.897959 12.538776-30.302041 20.897959s-14.628571 17.763265-17.763265 30.302041c-7.314286 16.718367-10.44898 28.212245-10.44898 42.840816z m126.432653 18.808164c0 6.269388 0 12.538776-3.134694 17.763265-3.134694 6.269388-3.134694 9.404082-6.269387 14.628571-3.134694 6.269388-6.269388 6.269388-12.538776 9.404082-6.269388 3.134694-9.404082 3.134694-17.763265 3.134694-6.269388 0-12.538776 0-17.763265-3.134694-6.269388-3.134694-9.404082-6.269388-12.538776-9.404082-3.134694-3.134694-6.269388-9.404082-9.404082-14.628571-3.134694-6.269388-3.134694-12.538776-3.134693-14.628571h81.50204l1.044898-3.134694z m199.575511 35.52653c-3.134694 0-9.404082 3.134694-14.628572 3.134694s-14.628571 3.134694-20.897959 3.134694h-14.628571c-6.269388 0-9.404082-3.134694-12.538776-3.134694v-150.465306h-44.930612V459.232653c9.404082 3.134694 17.763265 6.269388 30.302041 9.404082 12.538776 3.134694 27.167347 3.134694 41.795918 3.134694h20.897959c3.134694 0 9.404082 0 12.538776-3.134694 3.134694 0 6.269388-3.134694 9.404081-3.134694l-7.314285-39.706123z m35.52653 90.906123l44.930612 6.269388v-57.469388h65.828572v-36.571429h-65.828572v-75.232653c0-14.628571 3.134694-27.167347 6.269388-33.436735 3.134694-6.269388 12.538776-9.404082 24.032653-9.404081 9.404082 0 14.628571 0 20.897959 3.134694s12.538776 3.134694 14.628572 6.269387l6.269388-36.571428c-6.269388-3.134694-12.538776-3.134694-20.89796-6.269388-9.404082-3.134694-17.763265-3.134694-30.30204-3.134694s-24.032653 3.134694-33.436735 6.269388c-9.404082 3.134694-14.628571 9.404082-20.897959 14.628571s-9.404082 14.628571-12.538776 24.032654c-3.134694 9.404082-3.134694 20.897959-3.134694 33.436734V516.702041h4.179592z m198.530612-207.934694c12.538776 0 20.897959 0 24.032653 3.134694 3.134694 3.134694 9.404082 6.269388 9.404082 14.628571 0 6.269388-3.134694 12.538776-9.404082 14.628572-6.269388 3.134694-14.628571 9.404082-27.167346 12.538775-9.404082 3.134694-14.628571 6.269388-20.89796 9.404082-6.269388 3.134694-12.538776 6.269388-17.763265 12.538775-6.269388 3.134694-9.404082 9.404082-12.538775 14.628572-3.134694 6.269388-3.134694 14.628571-3.134694 24.032653 0 17.763265 6.269388 30.302041 17.763265 41.795918 12.538776 12.538776 30.302041 14.628571 51.2 14.628572 12.538776 0 20.897959 0 33.436735-3.134694 9.404082-3.134694 17.763265-3.134694 24.032653-6.269388l-9.404082-36.571429c-6.269388 3.134694-12.538776 3.134694-17.763265 6.269388-6.269388 3.134694-14.628571 3.134694-27.167347 3.134694-9.404082 0-14.628571 0-20.897959-6.269388-6.269388-3.134694-9.404082-9.404082-9.404082-14.628571 0-3.134694 0-6.269388 3.134694-9.404082 0-3.134694 3.134694-6.269388 6.269388-6.269388 3.134694-3.134694 6.269388-3.134694 9.404081-6.269387 3.134694-3.134694 9.404082-3.134694 14.628572-6.269388 9.404082-3.134694 17.763265-9.404082 27.167347-12.538776 9.404082-3.134694 12.538776-9.404082 17.763265-12.538775 6.269388-6.269388 9.404082-9.404082 9.404082-14.628571 3.134694-6.269388 3.134694-12.538776 3.134693-20.89796 0-17.763265-6.269388-33.436735-20.897959-41.795918-12.538776-9.404082-33.436735-14.628571-57.469387-14.628571-17.763265 0-30.302041 0-38.661225 3.134693-9.404082 3.134694-17.763265 6.269388-20.897959 6.269388l9.404082 36.571429c6.269388-3.134694 14.628571-6.269388 24.032653-9.404082 8.359184-2.089796 17.763265 4.179592 29.257142 4.179592zM1417.926531 188.604082h15.673469c8.359184 0 13.583673 3.134694 17.763265 10.448979 4.179592 6.269388 9.404082 21.942857 15.67347 47.020408 2.089796 9.404082 5.22449 14.628571 8.359183 16.718368 3.134694 2.089796 8.359184 3.134694 15.67347 3.134694 8.359184 0 13.583673-1.044898 15.673469-2.089796s3.134694-4.179592 3.134694-8.359184c0-3.134694 0-7.314286-1.044898-12.538775l-9.404082-68.963266c-1.044898-7.314286-2.089796-11.493878-4.179591-13.583673-2.089796-2.089796-5.22449-3.134694-10.44898-3.134694h-181.812245c-7.314286 0-11.493878 5.22449-11.493877 14.628571 0 7.314286 0 12.538776 1.044898 14.628572s3.134694 4.179592 6.269387 5.22449c10.44898 3.134694 15.673469 13.583673 15.67347 30.30204V562.677551c0 7.314286-3.134694 12.538776-9.404082 15.673469-5.22449 2.089796-9.404082 5.22449-10.44898 8.359184s-2.089796 8.359184-2.089795 15.673469c0 8.359184 1.044898 13.583673 2.089795 15.67347 1.044898 2.089796 4.179592 3.134694 8.359184 3.134694h127.477551c5.22449 0 8.359184-1.044898 9.404082-3.134694 2.089796-2.089796 3.134694-8.359184 3.134694-19.853061 0-6.269388-1.044898-10.44898-2.089796-12.538776-1.044898-2.089796-4.179592-4.179592-9.404082-6.269388-9.404082-3.134694-13.583673-9.404082-13.583673-18.808163v-371.983673zM1648.84898 553.273469c34.481633 0 63.738776-15.673469 86.72653-48.065306s34.481633-80.457143 34.481633-144.195918c0-68.963265-11.493878-120.163265-35.526531-155.689796-24.032653-35.526531-53.289796-53.289796-87.771428-53.289796-24.032653 0-44.930612 8.359184-62.693878 24.032653-17.763265 15.673469-31.346939 37.616327-40.75102 64.783674s-14.628571 63.738776-14.628572 109.714285c0 66.873469 11.493878 117.028571 33.436735 151.510204 21.942857 34.481633 51.2 51.2 86.726531 51.2z m19.853061-72.097959c0 24.032653-6.269388 35.526531-19.853061 35.526531-14.628571 0-21.942857-14.628571-21.942858-43.885714v-239.281633c0-29.257143 6.269388-43.885714 19.853062-43.885714 14.628571 0 21.942857 14.628571 21.942857 43.885714V481.17551zM1901.714286 496.84898v-278.987756c0-6.269388 2.089796-12.538776 5.22449-17.763265 4.179592-5.22449 9.404082-8.359184 15.673469-8.359183 9.404082 0 16.718367 6.269388 20.897959 17.763265s7.314286 27.167347 7.314286 45.97551v8.359184c0 10.44898 2.089796 16.718367 5.22449 17.763265 3.134694 2.089796 9.404082 3.134694 18.808163 3.134694 7.314286 0 12.538776-1.044898 15.673469-4.179592s4.179592-9.404082 4.179592-17.763265c0-29.257143-7.314286-55.379592-21.942857-77.322449-14.628571-21.942857-35.526531-33.436735-63.738776-33.436735-32.391837 0-58.514286 16.718367-79.412244 50.155102-20.897959 33.436735-31.346939 81.502041-31.346939 143.151021 0 45.97551 5.22449 84.636735 15.673469 115.983673 10.44898 30.302041 22.987755 53.289796 38.661225 68.963265 14.628571 14.628571 33.436735 22.987755 56.424489 22.987755 27.167347 0 48.065306-9.404082 63.738776-28.212245 15.673469-18.808163 22.987755-39.706122 22.987755-64.783673 0-12.538776-2.089796-22.987755-7.314286-32.391837-5.22449-8.359184-12.538776-13.583673-22.987755-13.583673-10.44898 0-18.808163 4.179592-25.077551 12.538775-6.269388 8.359184-8.359184 18.808163-8.359183 31.346939 0 5.22449 1.044898 11.493878 2.089795 18.808163 1.044898 8.359184 2.089796 14.628571 2.089796 19.853062s-2.089796 9.404082-5.224489 12.538775c-3.134694 3.134694-7.314286 5.22449-12.538776 5.22449-4.179592 0-8.359184-2.089796-11.493877-6.269388-4.179592-2.089796-5.22449-6.269388-5.22449-11.493877zM2157.714286 435.2v55.379592c0 15.673469-6.269388 22.987755-17.763266 22.987755-16.718367 0-24.032653-11.493878-24.032653-34.481633 0-12.538776-1.044898-21.942857-4.179591-28.212245-3.134694-5.22449-9.404082-10.44898-18.808164-14.628571-10.44898-4.179592-20.897959-6.269388-32.391836-6.269388-22.987755 0-35.526531 12.538776-35.526531 38.661225 0 24.032653 10.44898 44.930612 30.302041 60.604081s47.020408 22.987755 79.412245 22.987755c21.942857 0 40.75102-3.134694 58.514285-9.404081 16.718367-6.269388 31.346939-16.718367 40.751021-31.346939 10.44898-14.628571 15.673469-30.302041 15.673469-48.065306v-262.269388c0-1.044898 3.134694-4.179592 8.359184-8.359184 4.179592-3.134694 5.22449-7.314286 5.22449-12.538775 0-7.314286-1.044898-13.583673-3.134694-16.718367-2.089796-3.134694-7.314286-6.269388-14.628572-8.359184s-17.763265-4.179592-29.257143-4.179592c-14.628571 0-26.122449 3.134694-35.52653 8.359184-9.404082 5.22449-16.718367 15.673469-21.942857 32.391837-15.673469-17.763265-29.257143-28.212245-38.661225-33.436735-9.404082-5.22449-19.853061-7.314286-30.302041-7.314286-22.987755 0-41.795918 9.404082-54.334694 28.212245-12.538776 18.808163-18.808163 50.155102-18.808163 94.040816 0 42.840816 6.269388 73.142857 17.763266 89.861225 11.493878 16.718367 35.526531 32.391837 70.008163 45.97551 19.853061 10.44898 38.661224 18.808163 53.289796 26.122449z m0-37.616327c-20.897959-9.404082-33.436735-19.853061-37.616327-32.391836-4.179592-11.493878-6.269388-38.661224-6.269388-80.457143 0-31.346939 2.089796-50.155102 5.22449-58.514286 3.134694-8.359184 9.404082-12.538776 16.718368-12.538775 14.628571 0 20.897959 12.538776 20.897959 36.571428V397.583673zM2285.191837 597.159184v14.628571c0 6.269388 4.179592 9.404082 11.493877 9.404082h85.681633c4.179592 0 7.314286 0 9.404082-1.044898 1.044898-1.044898 2.089796-4.179592 2.089795-9.404082v-402.285714c0-8.359184 3.134694-14.628571 8.359184-16.718367 4.179592-1.044898 6.269388-5.22449 6.269388-9.404082v-16.718367c0-6.269388-4.179592-9.404082-12.538776-9.404082h-101.355102c-5.22449 0-8.359184 3.134694-8.359183 9.404082v16.718367c0 6.269388 3.134694 11.493878 8.359183 14.628571 4.179592 2.089796 6.269388 4.179592 7.314286 5.22449 1.044898 2.089796 1.044898 5.22449 1.044898 9.404082V567.902041c0 6.269388-2.089796 11.493878-7.314286 13.583673-7.314286 3.134694-10.44898 8.359184-10.448979 15.67347zM2692.702041 315.036735v-96.130613c0-11.493878 4.179592-18.808163 13.583673-21.942857 4.179592-2.089796 7.314286-4.179592 9.404082-7.314285 2.089796-3.134694 3.134694-8.359184 3.134694-16.718368 0-7.314286-1.044898-12.538776-3.134694-14.628571-2.089796-2.089796-6.269388-3.134694-12.538776-3.134694h-125.387755c-6.269388 0-10.44898 6.269388-10.448979 17.763265 0 9.404082 0 15.673469 1.044898 17.763266 1.044898 2.089796 4.179592 4.179592 9.404081 6.269387 5.22449 1.044898 7.314286 3.134694 9.404082 5.22449 1.044898 2.089796 2.089796 5.22449 2.089796 9.404082V559.542857c0 8.359184-5.22449 14.628571-14.628572 19.853061-5.22449 3.134694-7.314286 7.314286-8.359183 13.583674v13.583673c0 6.269388 1.044898 9.404082 2.089796 11.493878 1.044898 2.089796 4.179592 3.134694 9.404081 3.134694h141.061225c40.75102 0 73.142857-13.583673 97.17551-40.751021S2852.571429 515.657143 2852.571429 467.591837c0-27.167347-4.179592-51.2-11.493878-72.097959-7.314286-20.897959-16.718367-36.571429-28.212245-47.020409s-24.032653-17.763265-38.661224-24.032653c-14.628571-6.269388-30.302041-9.404082-47.020409-9.404081h-34.481632z m0 273.763265v-241.371429h18.808163c6.269388 0 12.538776 4.179592 17.763265 11.493878 5.22449 7.314286 8.359184 19.853061 8.359184 37.616327V540.734694c0 32.391837-10.44898 48.065306-31.346939 48.065306h-13.583673zM3018.710204 435.2v55.379592c0 15.673469-6.269388 22.987755-17.763265 22.987755-16.718367 0-24.032653-11.493878-24.032653-34.481633 0-12.538776-1.044898-21.942857-4.179592-28.212245-3.134694-5.22449-9.404082-10.44898-18.808163-14.628571-10.44898-4.179592-20.897959-6.269388-32.391837-6.269388-22.987755 0-35.526531 12.538776-35.526531 38.661225 0 24.032653 10.44898 44.930612 30.302041 60.604081s47.020408 22.987755 79.412245 22.987755c21.942857 0 40.75102-3.134694 58.514286-9.404081 16.718367-6.269388 31.346939-16.718367 40.75102-31.346939 10.44898-14.628571 15.673469-30.302041 15.673469-48.065306v-262.269388c0-1.044898 3.134694-4.179592 8.359184-8.359184 4.179592-3.134694 5.22449-7.314286 5.22449-12.538775 0-7.314286-1.044898-13.583673-3.134694-16.718367-2.089796-3.134694-7.314286-6.269388-14.628571-8.359184s-17.763265-4.179592-29.257143-4.179592c-14.628571 0-26.122449 3.134694-35.526531 8.359184-9.404082 5.22449-16.718367 15.673469-21.942857 32.391837-15.673469-17.763265-29.257143-28.212245-38.661224-33.436735-9.404082-5.22449-19.853061-7.314286-30.302041-7.314286-22.987755 0-41.795918 9.404082-54.334694 28.212245-12.538776 18.808163-18.808163 50.155102-18.808163 94.040816 0 42.840816 6.269388 73.142857 17.763265 89.861225 11.493878 16.718367 35.526531 32.391837 70.008163 45.97551 20.897959 10.44898 38.661224 18.808163 53.289796 26.122449z m0-37.616327c-20.897959-9.404082-33.436735-19.853061-37.616326-32.391836-4.179592-11.493878-6.269388-38.661224-6.269388-80.457143 0-31.346939 2.089796-50.155102 5.22449-58.514286 3.134694-8.359184 9.404082-12.538776 16.718367-12.538775 14.628571 0 20.897959 12.538776 20.897959 36.571428V397.583673zM3252.767347 510.432653c21.942857 29.257143 47.020408 42.840816 75.232653 42.840816 18.808163 0 33.436735-6.269388 43.885714-19.853061 10.44898-12.538776 15.673469-29.257143 15.67347-49.110204v-275.853061c0-6.269388 2.089796-10.44898 7.314285-13.583674 4.179592-3.134694 6.269388-9.404082 6.269388-20.897959 0-8.359184-1.044898-13.583673-2.089796-15.673469s-4.179592-2.089796-8.359183-2.089796H3312.326531c-11.493878 9.404082-16.718367 22.987755-16.718368 38.661224V468.636735c0 14.628571-6.269388 21.942857-17.763265 21.942857-7.314286 0-15.673469-4.179592-25.077551-12.538776v-268.538775c0-7.314286 3.134694-12.538776 9.404082-15.67347 4.179592-2.089796 6.269388-6.269388 6.269387-12.538775v-14.628572c0-6.269388-4.179592-9.404082-13.583673-9.404081h-98.220408c-5.22449 0-7.314286 1.044898-9.404082 2.089796-1.044898 1.044898-2.089796 5.22449-2.089796 10.448979v10.44898c0 5.22449 2.089796 9.404082 5.22449 11.493878 4.179592 3.134694 7.314286 6.269388 8.359184 9.404081 1.044898 3.134694 2.089796 9.404082 2.089796 18.808163V501.028571c0 6.269388-3.134694 11.493878-9.404082 14.628572-3.134694 2.089796-5.22449 5.22449-5.22449 9.404081V540.734694c0 6.269388 2.089796 9.404082 7.314286 9.404082h89.861224c4.179592 0 6.269388-1.044898 7.314286-2.089796 1.044898-1.044898 1.044898-3.134694 1.044898-7.314286v-30.302041zM3568.326531 522.971429v50.155102c0 8.359184-3.134694 12.538776-9.404082 13.583673-3.134694 0-6.269388 1.044898-7.314286 3.134694s-2.089796 5.22449-2.089796 10.44898v11.493877c0 4.179592 1.044898 7.314286 2.089796 8.359184 1.044898 1.044898 4.179592 2.089796 8.359184 2.089796h87.771429c5.22449 0 8.359184-1.044898 9.404081-2.089796s2.089796-5.22449 2.089796-11.493878V206.367347c0-8.359184 4.179592-13.583673 12.538776-16.718367 4.179592-1.044898 6.269388-4.179592 6.269387-9.404082v-14.628571c0-6.269388-3.134694-9.404082-8.359183-9.404082H3573.55102c-3.134694 0-5.22449 1.044898-5.224489 2.089796s-1.044898 6.269388-1.044898 15.673469v7.314286c-19.853061-19.853061-38.661224-29.257143-56.42449-29.257143-58.514286 0-87.771429 61.64898-87.771429 185.991837 0 87.771429 7.314286 146.285714 22.987755 173.453061 15.673469 27.167347 35.526531 41.795918 60.604082 41.795918 20.897959 0 40.75102-10.44898 61.64898-30.30204z m0-32.391837c-8.359184 5.22449-15.673469 8.359184-20.89796 8.359184-6.269388 0-11.493878-3.134694-14.628571-9.404082-4.179592-6.269388-5.22449-12.538776-5.22449-19.853061v-237.191837c0-7.314286 2.089796-13.583673 5.22449-17.763265 3.134694-5.22449 8.359184-7.314286 13.583673-7.314286s10.44898 2.089796 14.628572 6.269388c5.22449 4.179592 7.314286 8.359184 7.314286 12.538775V490.579592zM3842.089796 435.2v55.379592c0 15.673469-6.269388 22.987755-17.763265 22.987755-16.718367 0-24.032653-11.493878-24.032653-34.481633 0-12.538776-1.044898-21.942857-4.179592-28.212245-3.134694-5.22449-9.404082-10.44898-18.808164-14.628571-10.44898-4.179592-20.897959-6.269388-32.391836-6.269388-22.987755 0-35.526531 12.538776-35.526531 38.661225 0 24.032653 10.44898 44.930612 30.302041 60.604081s47.020408 22.987755 79.412245 22.987755c21.942857 0 40.75102-3.134694 58.514286-9.404081 16.718367-6.269388 31.346939-16.718367 40.75102-31.346939 10.44898-14.628571 15.673469-30.302041 15.673469-48.065306v-262.269388c0-1.044898 3.134694-4.179592 8.359184-8.359184 4.179592-3.134694 5.22449-7.314286 5.22449-12.538775 0-7.314286-1.044898-13.583673-3.134694-16.718367-2.089796-3.134694-7.314286-6.269388-14.628572-8.359184s-17.763265-4.179592-29.257142-4.179592c-14.628571 0-26.122449 3.134694-35.526531 8.359184-9.404082 5.22449-16.718367 15.673469-21.942857 32.391837-15.673469-17.763265-29.257143-28.212245-38.661225-33.436735-9.404082-5.22449-19.853061-7.314286-30.30204-7.314286-22.987755 0-41.795918 9.404082-54.334694 28.212245-12.538776 18.808163-18.808163 50.155102-18.808164 94.040816 0 42.840816 6.269388 73.142857 17.763266 89.861225 11.493878 16.718367 35.526531 32.391837 70.008163 45.97551 20.897959 10.44898 38.661224 18.808163 53.289796 26.122449z m0-37.616327c-20.897959-9.404082-33.436735-19.853061-37.616327-32.391836-4.179592-11.493878-6.269388-38.661224-6.269387-80.457143 0-31.346939 2.089796-50.155102 5.224489-58.514286 3.134694-8.359184 9.404082-12.538776 16.718368-12.538775 14.628571 0 20.897959 12.538776 20.897959 36.571428V397.583673z"  horiz-adv-x="8552" />

    
    </font>
</defs>
</svg>
